<?xml version="1.0" encoding="utf-8"?>
<!-- Generator: Adobe Illustrator 19.2.1, SVG Export Plug-In . SVG Version: 6.00 Build 0)  -->
<svg version="1.1" xmlns="http://www.w3.org/2000/svg" xmlns:xlink="http://www.w3.org/1999/xlink" x="0px" y="0px"
	 viewBox="0 0 350 350" style="enable-background:new 0 0 350 350;" xml:space="preserve">
<style type="text/css">
	.st0{opacity:0.68;}
	.st1{opacity:0.53;fill:#0071BC;}
	.st2{opacity:0.24;fill:#29ABE2;}
	.st3{opacity:0.53;fill:#72C2DB;}
	.st4{opacity:0.11;fill:#0071BC;}
	.st5{opacity:6.000000e-002;fill:#0071BC;}
	.st6{opacity:0.12;fill:#0071BC;}
	.st7{opacity:0.24;fill:#0071BC;}
	.st8{fill:#CCCCCC;}
	.st9{fill:#F2F2F2;}
	.st10{opacity:0.27;}
	.st11{fill:#FFFFFF;}
	.st12{opacity:6.000000e-002;fill:#4D4D4D;}
	.st13{opacity:0.12;}
	.st14{fill:#304062;}
	.st15{fill:none;stroke:#FFFFFF;stroke-miterlimit:10;}
	.st16{opacity:0.13;}
	.st17{opacity:5.000000e-002;}
	.st18{opacity:0.16;}
	.st19{fill:#00A99D;}
	.st20{fill:#E6E6E6;}
	.st21{opacity:0.5;fill:#00A99D;}
	.st22{opacity:0.66;fill:#00A99D;}
	.st23{opacity:8.000000e-002;}
	.st24{fill:#B3B3B3;}
	.st25{fill:#3C507A;}
	.st26{opacity:0.17;}
	.st27{fill:#999999;}
	.st28{opacity:3.000000e-002;fill:#4D4D4D;}
	.st29{opacity:0.15;}
	.st30{opacity:0.68;fill:#304062;}
	.st31{opacity:6.000000e-002;}
	.st32{clip-path:url(#SVGID_2_);}
	.st33{fill:none;stroke:#304062;stroke-miterlimit:10;}
	.st34{clip-path:url(#SVGID_4_);}
	.st35{opacity:0.66;fill:#3C507A;}
	.st36{fill:#494949;}
	.st37{clip-path:url(#SVGID_6_);}
	.st38{fill:none;stroke:#3C507A;stroke-miterlimit:10;}
	.st39{clip-path:url(#SVGID_8_);}
	.st40{clip-path:url(#SVGID_10_);}
	.st41{clip-path:url(#SVGID_12_);}
</style>
<g id="Layer_1">
</g>
<g id="Layer_2">
</g>
<g id="Layer_3">
	<g>
		<path class="st2" d="M14,68.3c0-0.1,0-0.1,0-0.2c0-0.1,0-0.1,0-0.2V68.3z"/>
		<path class="st2" d="M320.5,138H312v-0.5c-10-1.5-17.1-9.7-17.1-19.6c0-11,9.4-19.9,20.7-19.9h0c8-2,13.4-7.9,13.4-15.6v-8.9
			c0-8.7-7.1-16.5-16.6-16.5H230v-9.3c0-15.9-13.1-28.7-30.2-28.7h-56.9c-17.2,0-31.1,12-31.1,29H36.1C24,48,14.1,56.9,14,68
			c0.1,11.1,10,20,22.1,20h11.1h11.1c11.3,0,20,8.6,20,19.6c0,11-8.7,19.4-20,19.4H47.2c-10.7,0-20.2,9.4-20.2,19.7v2
			c0,10.4,8.8,18.8,20,18.8c10.7,0,19,8.4,19,18.8v1.1c0,10.3-7.9,18.6-18.5,18.6H37.2c-12.1,0-22,9.3-22,20.5
			c0,11.2,9.8,20.5,22,20.5H50v9.4c0,13.8,11.6,24.6,26.5,24.6H95v8.2c0,9.8,9.3,17.8,20,17.8h53c-0.1,1-0.2,1.9-0.2,2.7
			c0,8.9,7.4,16.3,16.5,16.3h17.9c9.1,0,16.5-7.5,16.5-16.3c0-0.8-0.1-1.7-0.2-2.7h9.2c10.7,0,19.3-8,19.3-18h16.1
			c16.6,0,29.9-12.2,29.9-27.5V256h3.3c11.9,0,20.7-8.4,20.7-19.4v-0.1c0-10.9-8.8-20.5-20.7-20.5H294v-37h26.5
			c12.1,0,22-9.3,22-20.5C342.5,147.3,332.6,138,320.5,138z"/>
	</g>
	<circle class="st2" cx="184.3" cy="188.2" r="99"/>
	<path class="st2" d="M67.9,321H51.1c-8.5,0-15.3-6.9-15.3-15.3v0c0-8.5,6.9-15.3,15.3-15.3h16.7c8.5,0,15.3,6.9,15.3,15.3v0
		C83.2,314.1,76.3,321,67.9,321z"/>
	<path class="st2" d="M259.9,38.5h-16.7c-8.5,0-15.3-6.9-15.3-15.3v0c0-8.5,6.9-15.3,15.3-15.3h16.7c8.5,0,15.3,6.9,15.3,15.3v0
		C275.2,31.6,268.3,38.5,259.9,38.5z"/>
	<path class="st2" d="M317.7,291L317.7,291c-8.5,0-15.3-6.9-15.3-15.3v0c0-8.5,6.9-15.3,15.3-15.3h0c8.5,0,15.3,6.9,15.3,15.3v0
		C333,284.1,326.1,291,317.7,291z"/>
	<path class="st2" d="M30.4,200.7L30.4,200.7c-8.5,0-15.3-6.9-15.3-15.3v0c0-8.5,6.9-15.3,15.3-15.3h0c8.5,0,15.3,6.9,15.3,15.3v0
		C45.7,193.8,38.8,200.7,30.4,200.7z"/>
	<circle class="st2" cx="175" cy="211.1" r="65.5"/>
	<circle class="st2" cx="168.6" cy="220.6" r="42.3"/>
	<g>
		<rect x="295" y="259.7" class="st9" width="2.2" height="1.9"/>
		<path class="st9" d="M292.2,281.7h-74v-28.6c0-1.7,1.4-3.2,3.2-3.2h67.7c1.7,0,3.2,1.4,3.2,3.2V281.7z"/>
		<path class="st16" d="M218.2,281.7h29.7c-9.8-7.7-19.3-15.8-29.7-23V281.7z"/>
		<path class="st17" d="M292.2,281.2c-24.2-10.7-49-20.6-73.3-30.9c-0.4,0.5-0.7,1.1-0.7,1.8v6.7c10.4,7.2,19.9,15.2,29.7,23h44.3
			V281.2z"/>
		<rect x="239.7" y="240.3" class="st9" width="32.9" height="11.7"/>
		<rect x="243.2" y="267.3" class="st11" width="3.7" height="14.4"/>
		<rect x="250.5" y="267.3" class="st11" width="3.7" height="14.4"/>
		<rect x="257.5" y="267.3" class="st11" width="3.7" height="14.4"/>
		<rect x="264.7" y="267.3" class="st11" width="3.7" height="14.4"/>
		<rect x="216.2" y="280.4" class="st8" width="77.8" height="2.5"/>
		<rect x="239.6" y="243.3" class="st18" width="33" height="3.8"/>
		<path class="st14" d="M234,244.6h43.7c1.2,0,1.8-1.6,0.8-2.3L259,228.1c-1.9-1.4-4.5-1.4-6.4,0l-19.4,14.2
			C232.2,243,232.7,244.6,234,244.6z"/>
		<path class="st17" d="M263,230.9c-9.6,4.5-19,9.8-28.8,13.7h6.4c10.6-2.3,21.2-4.3,31.6-7L263,230.9z"/>
		<path class="st16" d="M272.1,237.6c-10.3,2.7-20.9,4.7-31.6,7h37.2c1.2,0,1.8-1.6,0.8-2.3L272.1,237.6z"/>
		<rect x="220.8" y="253" class="st11" width="5" height="6.1"/>
		<rect x="229" y="253" class="st11" width="5" height="6.1"/>
		<rect x="236.6" y="253" class="st11" width="5" height="6.1"/>
		<rect x="221.1" y="262.1" class="st11" width="5" height="6.1"/>
		<rect x="229.2" y="262.1" class="st11" width="5" height="6.1"/>
		<rect x="221.1" y="271.5" class="st11" width="5" height="6.1"/>
		<rect x="229.2" y="271.5" class="st11" width="5" height="6.1"/>
		<rect x="236.9" y="262.1" class="st11" width="5" height="6.1"/>
		<rect x="244.7" y="253" class="st11" width="5" height="6.1"/>
		<rect x="261.1" y="253" class="st11" width="5" height="6.1"/>
		<rect x="269.2" y="253" class="st11" width="5" height="6.1"/>
		<rect x="276.9" y="253" class="st11" width="5" height="6.1"/>
		<rect x="285" y="253" class="st11" width="5" height="6.1"/>
		<rect x="269.2" y="262.1" class="st11" width="5" height="6.1"/>
		<rect x="276.9" y="262.1" class="st11" width="5" height="6.1"/>
		<rect x="285" y="262.1" class="st11" width="5" height="6.1"/>
		<rect x="276.7" y="271.3" class="st11" width="5" height="6.1"/>
		<rect x="284.8" y="271.3" class="st11" width="5" height="6.1"/>
		<rect x="243.2" y="268.9" class="st18" width="3.7" height="1.6"/>
		<rect x="257.5" y="268.9" class="st18" width="3.7" height="1.6"/>
		<rect x="264.7" y="268.6" class="st18" width="3.7" height="1.6"/>
		<rect x="250.5" y="268.9" class="st18" width="3.7" height="1.6"/>
		<path class="st14" d="M242.9,268.9h25.7c0.7,0,1-0.9,0.4-1.4l-11.4-8.4c-1.1-0.8-2.6-0.8-3.8,0l-11.4,8.4
			C241.9,268,242.2,268.9,242.9,268.9z"/>
		<g>
			<path class="st18" d="M295.3,281.3h-16.8c-1.5,0-2.8-1.2-2.8-2.8v-22.8c0-1.5,1.2-2.8,2.8-2.8h16.8c1.5,0,2.8,1.2,2.8,2.8v22.8
				C298.1,280,296.8,281.3,295.3,281.3z"/>
			<g>
				<path class="st11" d="M296.9,281.3h-16.8c-1.5,0-2.8-1.2-2.8-2.8v-22.8c0-1.5,1.2-2.8,2.8-2.8h16.8c1.5,0,2.8,1.2,2.8,2.8v22.8
					C299.7,280,298.4,281.3,296.9,281.3z"/>
				<path class="st17" d="M299.9,255.8c0-0.4-0.1-0.8-0.3-1.2c-6.8,9-14,17.3-21.3,25.9c0.5,0.5,1.2,0.9,2,0.9h1.1
					c6.3-3.9,12.4-8.3,18.5-12.6V255.8z"/>
				<path class="st16" d="M281.4,281.4h15.7c1.5,0,2.8-1.2,2.8-2.8v-9.9C293.8,273.1,287.7,277.5,281.4,281.4z"/>
				<path class="st14" d="M290.6,278.3v6.6c0,0.4,0.6,0.6,0.8,0.3l1.7-2.9l1.7,2.7c0.3,0.3,0.8,0.1,0.8-0.3v-6.3H290.6z"/>
				<path class="st14" d="M293.1,273.4c-0.9,0-1.8,0.3-2.5,0.9c0,2.1,0,4.3,0,6.4c0.7,0.5,1.6,0.9,2.5,0.9s1.8-0.3,2.5-0.9
					c0-2.1,0-4.2,0-6.4C294.9,273.7,294,273.4,293.1,273.4z"/>
				<circle class="st14" cx="293.2" cy="276.4" r="4.1"/>
			</g>
		</g>
		<rect x="281.1" y="255.1" class="st9" width="14.7" height="1.9"/>
		<rect x="279.6" y="259.7" class="st20" width="14.7" height="1.9"/>
		<rect x="279.6" y="267.7" class="st20" width="10.3" height="1.9"/>
		<rect x="282.5" y="263.7" class="st20" width="14.7" height="1.9"/>
		<rect x="291.1" y="267.7" class="st20" width="6.1" height="1.9"/>
		<rect x="279.6" y="271.4" class="st20" width="6.1" height="1.9"/>
		<rect x="279.4" y="263.7" class="st20" width="2.2" height="1.9"/>
		<rect x="286.9" y="271.4" class="st20" width="2.2" height="1.9"/>
		<rect x="279.6" y="275.4" class="st20" width="3.8" height="1.9"/>
	</g>
	
		<rect x="127.9" y="89.8" transform="matrix(0.7602 -0.6497 0.6497 0.7602 -29.1265 106.1149)" class="st8" width="2.5" height="5.4"/>
	
		<rect x="114.8" y="75.7" transform="matrix(0.7602 -0.6497 0.6497 0.7602 -22.7102 95.1069)" class="st27" width="5.3" height="5.3"/>
	<ellipse transform="matrix(0.994 -0.1091 0.1091 0.994 -5.2975 10.9946)" class="st9" cx="97.8" cy="53.9" rx="12.7" ry="12.7"/>
	<path class="st11" d="M124.1,71.8l-13.7,11.4c-2.2,1.9-5.5,1.6-7.4-0.7L86.6,62.8l21.7-18.1l16.4,19.7
		C126.6,66.6,126.3,69.9,124.1,71.8z"/>
	<path class="st20" d="M93.4,65.3l11.1,13.2c0.8,1,2.3,1.1,3.2,0.2l2.7-2.5c0.9-0.8,1-2.2,0.2-3.1L99.7,60c-0.8-0.9-2.2-1.1-3.1-0.3
		l-2.9,2.4C92.7,62.9,92.6,64.4,93.4,65.3z"/>
	<polygon class="st26" points="87.8,61.8 107.3,45.5 106.3,44.5 87.1,60.7 	"/>
	<ellipse transform="matrix(0.994 -0.1091 0.1091 0.994 -5.5925 11.6779)" class="st20" cx="103.9" cy="56.9" rx="2.3" ry="2.3"/>
	<ellipse transform="matrix(0.994 -0.1091 0.1091 0.994 -5.1156 12.1767)" class="st20" cx="108.7" cy="52.8" rx="2.3" ry="2.3"/>
	<path class="st11" d="M141.8,81.4L117,102.6l0,0c-5.9-6.9-5.1-17.2,1.8-23l0,0C125.6,73.7,136,74.6,141.8,81.4L141.8,81.4z"/>
	<path class="st13" d="M114,80.4c-7.6-4.1-15.2-7.8-22.7-12l11.9,14.2c1.9,2.2,5.2,2.5,7.4,0.7L114,80.4z"/>
	<path class="st12" d="M124.2,71.9c0.7-0.6,1.2-1.4,1.5-2.2c-13-2.4-26.1-4.5-38.8-6.8L86.7,63l4.5,5.4c7.6,4.2,15.2,7.9,22.7,12
		L124.2,71.9z"/>
	<path class="st12" d="M138.4,84.3c-8.4,1.8-16.7,3.6-25.3,5.2c-0.2,1.2-0.1,2.4,0,3.5c4.3,1,8.1,1.8,12.2,2.5L138.4,84.3z"/>
	<path class="st13" d="M113.2,93c0.2,3.5,1.4,6.8,3.8,9.6l8.4-7.2C121.3,94.8,117.4,94,113.2,93z"/>
	<ellipse transform="matrix(0.7602 -0.6497 0.6497 0.7602 -30.82 109.1367)" class="st14" cx="132.4" cy="96.3" rx="3.1" ry="3.1"/>
	<polygon class="st30" points="100.5,98.1 101,92.3 101.8,98.1 106.3,98.9 101.9,99.4 101.2,105.2 100.5,99.4 96.1,98.9 	"/>
	<polygon class="st30" points="69,51 69.8,42.1 71,51 78,52.2 71.2,53.1 70.2,61.9 69,53.1 62.4,52.2 	"/>
	<polygon class="st30" points="117.1,24.8 117.5,19.8 118.2,24.8 122,25.5 118.3,25.9 117.7,30.8 117.1,25.9 113.4,25.5 	"/>
	<polygon class="st30" points="161.1,42.8 161.5,37.8 162.2,42.8 166,43.5 162.3,43.9 161.7,48.8 161.1,43.9 157.4,43.5 	"/>
	<polygon class="st30" points="52.1,112.8 52.5,107.8 53.2,112.8 57,113.5 53.3,113.9 52.7,118.8 52.1,113.9 48.4,113.5 	"/>
	<g>
		<path class="st11" d="M137.9,97.1c0,2.9-2.4,5.5-5.3,5.6c-1,0-1,1.5,0,1.5c3.8-0.2,6.8-3.4,6.8-7.1
			C139.4,96.1,137.9,96.1,137.9,97.1L137.9,97.1z"/>
	</g>
	<g>
		<path class="st11" d="M140.3,102.4c-0.5,1.2-1.7,2.1-3,2.1c-1,0-1,1.5,0,1.5c1.8-0.1,3.5-1.1,4.3-2.8
			C142,102.3,140.7,101.5,140.3,102.4L140.3,102.4z"/>
	</g>
	<g>
		<g>
			<rect x="147.2" y="227.5" class="st11" width="2.6" height="25.3"/>
			<rect x="147.2" y="230.9" class="st26" width="2.7" height="2.2"/>
			<circle class="st14" cx="148.4" cy="228.7" r="3.3"/>
			<path class="st11" d="M156.6,282.5H88.3c-2.3,0-4.1-1.8-4.1-4.1v-18.3c0-2.3,1.8-4.1,4.1-4.1h68.3c2.3,0,4.1,1.8,4.1,4.1v18.3
				C160.7,280.7,158.9,282.5,156.6,282.5z"/>
			<path class="st13" d="M84.4,278.4c0,2.3,1.8,4.1,4.1,4.1h30.2c-11.4-7.4-22.6-15.2-34.3-22.3V278.4z"/>
			<path class="st12" d="M85.9,256.9c-1,0.8-1.6,1.9-1.6,3.2v0.1c11.8,7.1,22.9,14.9,34.3,22.3h38.1c1.8,0,3.3-1.1,3.8-2.7
				C136,271.6,111.2,263.7,85.9,256.9z"/>
			<path class="st24" d="M101.7,285.7H91.2c-1.8,0-3.2-1.5-3.2-3.2v0h17v0C104.9,284.3,103.5,285.7,101.7,285.7z"/>
			<path class="st24" d="M152.9,285.7h-10.5c-1.8,0-3.3-1.5-3.3-3.2v0h17v0C156.2,284.3,154.7,285.7,152.9,285.7z"/>
			<rect x="84.2" y="272.5" class="st14" width="76.5" height="3.8"/>
			<path class="st24" d="M152.9,256h-8.5l0,0c0-2.3,1.9-4.3,4.3-4.3l0,0C151,251.7,152.9,253.6,152.9,256L152.9,256z"/>
			<circle class="st27" cx="92.2" cy="265.9" r="2.3"/>
			<circle class="st27" cx="106.4" cy="265.9" r="2.3"/>
			<circle class="st27" cx="99.3" cy="265.9" r="2.3"/>
			<rect x="84.2" y="276.2" class="st26" width="76.5" height="1.5"/>
			<rect x="87.9" y="282.5" class="st26" width="17" height="0.9"/>
			<rect x="139.2" y="282.5" class="st26" width="17" height="0.9"/>
			<polygon class="st26" points="152.9,256 144.4,256 144.7,254.6 152.7,254.6 			"/>
		</g>
		<g>
			<g>
				<path class="st11" d="M146.1,220.1c-4.6,0-7.7,4-6.8,8.5c0.2,0.9,1.7,0.5,1.4-0.4c-0.8-3.5,1.8-6.6,5.3-6.6
					C147,221.6,147,220.1,146.1,220.1L146.1,220.1z"/>
			</g>
		</g>
		<g>
			<g>
				<path class="st11" d="M139.7,218.3c-2.8,0.5-4.5,3.3-3.7,6c0.3,0.9,1.7,0.5,1.4-0.4c-0.6-2,0.6-3.8,2.6-4.2
					C141.1,219.6,140.7,218.2,139.7,218.3L139.7,218.3z"/>
			</g>
		</g>
		<g>
			<g>
				<path class="st11" d="M135.2,217.3c-1.6,0.6-2.7,2.1-2.6,3.8c0,1,1.5,1,1.5,0c0-1,0.5-2,1.5-2.4
					C136.5,218.4,136.1,217,135.2,217.3L135.2,217.3z"/>
			</g>
		</g>
		<g>
			<path class="st11" d="M152.9,221c2.9,0.4,5.1,3.2,4.8,6.1c-0.1,1,1.4,1.2,1.5,0.2c0.4-3.7-2.3-7.3-6-7.8
				C152.2,219.4,152,220.9,152.9,221L152.9,221z"/>
		</g>
		<g>
			<path class="st11" d="M157.2,219.8c1.3,0.4,2.3,1.4,2.5,2.7c0.2,0.9,1.7,0.8,1.5-0.2c-0.3-1.8-1.6-3.3-3.4-3.9
				C156.9,218.1,156.3,219.5,157.2,219.8L157.2,219.8z"/>
		</g>
	</g>
	<g>
		<g>
			<path class="st11" d="M240.9,222.6c-0.8,2.8-3.8,4.6-6.7,3.9c-0.9-0.2-1.4,1.2-0.4,1.4c3.7,0.9,7.5-1.3,8.5-5
				C242.6,222.1,241.2,221.7,240.9,222.6L240.9,222.6z"/>
		</g>
		<g>
			<path class="st11" d="M241.6,227c-0.5,1.2-1.6,2.1-3,2.1c-1,0-1,1.5,0,1.5c1.8-0.1,3.5-1.1,4.3-2.8
				C243.2,227,242,226.2,241.6,227L241.6,227z"/>
		</g>
	</g>
	<g>
		<g>
			<polygon class="st14" points="314,217 314,222.3 316.1,220 318,222.3 318,217 			"/>
			<rect x="314.3" y="217.6" class="st18" width="4" height="1.3"/>
			<rect x="266.9" y="183" class="st8" width="49.8" height="30.4"/>
			<rect x="263.3" y="210.5" class="st11" width="60.8" height="4"/>
			<rect x="271.8" y="184.8" class="st11" width="6.1" height="26.1"/>
			<rect x="283.1" y="184.8" class="st11" width="6.1" height="26.1"/>
			<rect x="293.7" y="184.8" class="st11" width="6.1" height="26.1"/>
			<rect x="305" y="184.8" class="st11" width="6.1" height="26.1"/>
			<rect x="266.9" y="184.8" class="st18" width="49.8" height="2.8"/>
			<rect x="270.1" y="209" class="st9" width="9.2" height="1.9"/>
			<rect x="270.1" y="184.3" class="st9" width="9.2" height="1.9"/>
			<rect x="281.6" y="184.3" class="st9" width="9.2" height="1.9"/>
			<rect x="292.5" y="184.3" class="st9" width="9.2" height="1.9"/>
			<rect x="303.4" y="184.3" class="st9" width="9.2" height="1.9"/>
			<rect x="281.8" y="209" class="st9" width="9.2" height="1.9"/>
			<rect x="292.2" y="209" class="st9" width="9.2" height="1.9"/>
			<rect x="303.4" y="209" class="st9" width="9.2" height="1.9"/>
			<path class="st11" d="M261.6,184.8h61.2c1.4,0,2-1.8,0.9-2.6L292,158.5c-0.5-0.4-1.3-0.4-1.8,0l-29.5,23.6
				C259.7,183,260.3,184.8,261.6,184.8z"/>
			<path class="st14" d="M267.6,181.9h48.8c0.7,0,1-0.9,0.4-1.3l-25.3-18.8c-0.3-0.2-0.6-0.2-0.9,0l-23.5,18.8
				C266.7,181.1,267,181.9,267.6,181.9z"/>
			<ellipse class="st11" cx="291.6" cy="172.1" rx="4.1" ry="4.2"/>
			<path class="st18" d="M318.9,214.8h-30.4V196c0-1.6,1.3-2.9,2.9-2.9h25.2L318.9,214.8z"/>
			<path class="st14" d="M322.6,217.6l-30.9-1.3v-22.2h30.1c1.7,0,3.2,1.4,3.2,3.2v18C325,216.6,323.9,217.6,322.6,217.6z"/>
			<path class="st11" d="M322,217.6h-31.3v-20.6c0-1.6,1.3-2.9,2.9-2.9H322V217.6z"/>
			<path class="st23" d="M290.7,217.6h11.6c-3.7-4.8-7.4-9.9-11.6-14.4V217.6z"/>
			<path class="st12" d="M290.7,196.9v6.4c4.2,4.5,7.9,9.5,11.6,14.4h18C310.8,210.7,300.8,204,290.7,196.9z"/>
			<rect x="305.5" y="194.2" class="st9" width="1.8" height="23.5"/>
			<rect x="294.3" y="195.9" class="st20" width="8.5" height="1.8"/>
			<rect x="292.4" y="209.2" class="st20" width="11.5" height="1.8"/>
			<rect x="308.4" y="202.8" class="st20" width="11.5" height="1.8"/>
			<rect x="292.4" y="199.6" class="st20" width="4.9" height="1.8"/>
			<rect x="299" y="199.6" class="st20" width="4.9" height="1.8"/>
			<rect x="299" y="205.9" class="st20" width="4.9" height="1.8"/>
			<rect x="292.5" y="202.8" class="st20" width="7.7" height="1.8"/>
			<rect x="292.5" y="205.9" class="st20" width="4.9" height="1.8"/>
			<rect x="301.4" y="202.8" class="st20" width="2.5" height="1.8"/>
			<rect x="308.4" y="199.6" class="st20" width="7.7" height="1.8"/>
			<rect x="317.3" y="199.6" class="st20" width="2.5" height="1.8"/>
			<rect x="292.5" y="212.6" class="st20" width="7.7" height="1.8"/>
			<rect x="301.4" y="212.6" class="st20" width="2.5" height="1.8"/>
			<rect x="308.4" y="209.1" class="st20" width="11.5" height="1.8"/>
			<rect x="314.9" y="205.8" class="st20" width="4.9" height="1.8"/>
			<rect x="308.4" y="205.8" class="st20" width="4.9" height="1.8"/>
			<rect x="308.4" y="212.6" class="st20" width="7.7" height="1.8"/>
			<rect x="317.3" y="212.6" class="st20" width="2.5" height="1.8"/>
			<path class="st12" d="M302.8,166.6c-8.7,6.2-17.5,12.2-26.7,18.1h10.8c9.2-2.8,18.1-6.3,27.1-9.8L302.8,166.6z"/>
			<path class="st13" d="M314,175c-9,3.5-17.9,7-27.1,9.8h35.9c1.4,0,2-1.8,0.9-2.6L314,175z"/>
		</g>
		<g>
			<path class="st11" d="M275.4,158.3c-0.4,2.9-3.1,5.1-6,4.9c-1-0.1-1.2,1.4-0.2,1.5c3.7,0.3,7.2-2.4,7.7-6.1
				C277,157.6,275.5,157.4,275.4,158.3L275.4,158.3z"/>
		</g>
		<g>
			<path class="st11" d="M276.7,162.6c-0.4,1.3-1.3,2.3-2.6,2.5c-0.9,0.2-0.8,1.7,0.2,1.5c1.8-0.3,3.3-1.6,3.8-3.4
				C278.3,162.3,277,161.7,276.7,162.6L276.7,162.6z"/>
		</g>
	</g>
	<g>
		<g>
			
				<rect x="274.7" y="109.3" transform="matrix(-1 -4.487933e-011 4.487933e-011 -1 597.6054 249.9276)" class="st9" width="48.1" height="31.4"/>
			<path class="st14" d="M274.6,109.3h48.9c1.7,0,3.1-1.4,3.1-3.1l0,0c0-1.7-1.4-3.1-3.1-3.1h-48.9c-1.7,0-3.1,1.4-3.1,3.1l0,0
				C271.6,107.9,273,109.3,274.6,109.3z"/>
			
				<rect x="289.9" y="125" transform="matrix(-1 -4.511337e-011 4.511337e-011 -1 597.8026 265.6028)" class="st14" width="17.9" height="15.7"/>
			
				<rect x="297.8" y="128" transform="matrix(-1 -4.123336e-011 4.123336e-011 -1 597.6361 268.659)" class="st20" width="1.9" height="12.6"/>
			<path class="st13" d="M322.8,140.5h-16.7c4.7-10.6,10-21.1,16.7-30.8V140.5z"/>
			<path class="st12" d="M319.2,109.2h3.6v0.6c-6.7,9.7-11.9,20.2-16.7,30.8h-20.2C297,130.1,307.9,119.5,319.2,109.2z"/>
			
				<rect x="282.1" y="121.7" transform="matrix(-1 -4.490287e-011 4.490287e-011 -1 597.6054 249.7304)" class="st11" width="33.4" height="6.3"/>
			
				<rect x="274.7" y="109.3" transform="matrix(-1 -4.487933e-011 4.487933e-011 -1 597.6054 220.4503)" class="st18" width="48.1" height="1.9"/>
			
				<rect x="282.5" y="128" transform="matrix(-1 -4.485047e-011 4.485047e-011 -1 597.9297 257.9131)" class="st18" width="33" height="1.9"/>
		</g>
		<rect x="271.8" y="138.1" class="st11" width="53.5" height="3.2"/>
		<g>
			<path class="st13" d="M329.8,134.9h-16.2c-0.9,0-1.7-0.7-1.7-1.7v-9c0-0.9,0.7-1.7,1.7-1.7h16.2c0.9,0,1.7,0.7,1.7,1.7v9
				C331.5,134.2,330.7,134.9,329.8,134.9z"/>
			<circle class="st13" cx="316.2" cy="116.9" r="5.2"/>
			<circle class="st13" cx="327.5" cy="116.9" r="5.2"/>
			<polygon class="st20" points="317.4,134 313.1,144.4 315.1,144.4 321.3,134 			"/>
			<polygon class="st20" points="330,134 334.3,144.4 332.4,144.4 326.1,134 			"/>
			<polygon class="st20" points="321.9,134.3 322.6,145 324.1,145 325.4,134.7 			"/>
			<polygon class="st18" points="317.2,134 316.6,136 320.2,136 321.2,134 			"/>
			<polygon class="st18" points="321.9,134.6 322,136 325.3,136 325.7,134.2 			"/>
			<polygon class="st18" points="326.5,135 327.3,136.3 330.7,136 330.2,133.9 			"/>
			<path class="st14" d="M331,135h-16.2c-0.9,0-1.7-0.7-1.7-1.7v-9c0-0.9,0.7-1.7,1.7-1.7H331c0.9,0,1.7,0.7,1.7,1.7v9
				C332.6,134.3,331.9,135,331,135z"/>
			<path class="st13" d="M313.1,124.5v8.9c0,0.9,0.7,1.7,1.7,1.7h6.8C319.1,131.4,316.6,127.7,313.1,124.5z"/>
			<path class="st12" d="M313.7,123.1c-0.3,0.3-0.5,0.7-0.5,1.2v0.2c3.5,3.2,6,6.9,8.5,10.5h9.4c0.6,0,1.2-0.4,1.5-0.9
				C326.1,130.5,320.2,126.6,313.7,123.1z"/>
			<circle class="st11" cx="317.4" cy="117" r="5.2"/>
			<circle class="st11" cx="328.7" cy="117" r="5.2"/>
			<path class="st12" d="M320.9,113.4c-2.5,2.3-4.8,5-7.4,7.3c1,1.1,2.3,1.8,3.9,1.8c0.1,0,0.2,0,0.3,0c1.3-2.7,2.7-5.3,4.2-7.8
				C321.6,114.1,321.2,113.7,320.9,113.4z"/>
			<path class="st13" d="M317.6,122.4c2.8-0.1,5-2.4,5-5.2c0-1-0.3-1.9-0.7-2.6C320.3,117.1,318.9,119.7,317.6,122.4z"/>
			<path class="st12" d="M331.5,112.8c-2.1,3-4.1,5.7-6.2,8.3c0.9,0.8,2.1,1.3,3.4,1.3c0.3,0,0.7,0,1-0.1c1-2.8,2-5.6,2.9-8.6
				C332.2,113.4,331.8,113.1,331.5,112.8z"/>
			<path class="st13" d="M333.9,117.2c0-1.4-0.5-2.6-1.4-3.5c-0.9,3-1.8,5.9-2.9,8.6C332,121.9,333.9,119.7,333.9,117.2z"/>
			<rect x="332.6" y="124.8" class="st20" width="7.7" height="8.3"/>
			<polygon class="st14" points="341.7,135.4 336.9,133 336.9,124.7 341.7,122.4 			"/>
			<circle class="st14" cx="317.6" cy="117" r="1.4"/>
			<circle class="st14" cx="328.7" cy="117" r="1.4"/>
			<rect x="332.6" y="124.8" class="st18" width="1.8" height="8.3"/>
			<path class="st11" d="M323.1,131.6h-5.1c-1.3,0-2.4-1.1-2.4-2.4v-1.5c0-1.3,1.1-2.4,2.4-2.4h5.1c1.3,0,2.4,1.1,2.4,2.4v1.5
				C325.4,130.5,324.4,131.6,323.1,131.6z"/>
		</g>
		<g>
			<path class="st11" d="M269.4,95.3c-0.4,2.9-3.1,5.1-6,4.9c-1-0.1-1.2,1.4-0.2,1.5c3.7,0.3,7.2-2.4,7.7-6.1
				C271,94.6,269.5,94.4,269.4,95.3L269.4,95.3z"/>
		</g>
		<g>
			<path class="st11" d="M270.7,99.6c-0.4,1.3-1.3,2.3-2.6,2.5c-0.9,0.2-0.8,1.7,0.2,1.5c1.8-0.3,3.3-1.6,3.8-3.4
				C272.3,99.3,271,98.7,270.7,99.6L270.7,99.6z"/>
		</g>
	</g>
	<g>
		<rect x="61.4" y="167.7" class="st11" width="29.3" height="29.3"/>
		<rect x="61.4" y="167.7" class="st24" width="6.8" height="29.3"/>
		<rect x="85" y="167.7" class="st24" width="6.8" height="29.3"/>
		<rect x="62.9" y="169.6" class="st11" width="3.6" height="3.7"/>
		<rect x="62.9" y="176.4" class="st11" width="3.6" height="3.7"/>
		<rect x="63" y="182.9" class="st11" width="3.6" height="3.7"/>
		<rect x="63" y="189.6" class="st11" width="3.6" height="3.7"/>
		<rect x="86.6" y="169.6" class="st11" width="3.6" height="3.7"/>
		<rect x="86.6" y="176.4" class="st11" width="3.6" height="3.7"/>
		<rect x="86.7" y="182.9" class="st11" width="3.6" height="3.7"/>
		<rect x="86.7" y="189.6" class="st11" width="3.6" height="3.7"/>
		<path class="st26" d="M81.4,184.6v10.1c0,0.7,0.7,1.2,1.4,0.9l10.9-5c0.7-0.3,0.7-1.4,0-1.7l-10.9-5
			C82.1,183.4,81.4,183.9,81.4,184.6z"/>
		<path class="st14" d="M81.4,182.8v10.1c0,0.7,0.7,1.2,1.4,0.9l10.9-5c0.7-0.3,0.7-1.4,0-1.7l-10.9-5
			C82.1,181.6,81.4,182.1,81.4,182.8z"/>
	</g>
	<g>
		<rect x="82.3" y="207.7" class="st11" width="30.4" height="31"/>
		<g class="st26">
			<path d="M94.9,220.7c-7.5,0.7-10,10.7-2.9,14.1c1.5,0.7,2.8-1.4,1.4-2.2c-4.5-2.2-3.8-9,1.5-9.4
				C96.4,223.1,96.5,220.5,94.9,220.7L94.9,220.7z"/>
		</g>
		<path class="st26" d="M94.1,231l-3.2,5l5.1,0.3c0.5,0,0.9-0.5,0.6-1L94.1,231z"/>
		<g class="st26">
			<path d="M100.2,236.4c7.5-1,9.5-11.1,2.2-14.3c-1.5-0.6-2.8,1.6-1.3,2.2c4.6,2,4.2,8.8-1,9.5C98.6,234,98.6,236.6,100.2,236.4
				L100.2,236.4z"/>
		</g>
		<path class="st26" d="M100.5,226l2.9-5.2l-5.1-0.1c-0.5,0-0.8,0.6-0.6,1L100.5,226z"/>
		<rect x="82.3" y="210.8" class="st24" width="30.4" height="5.3"/>
		<rect x="98.6" y="212.1" class="st11" width="2.9" height="2.9"/>
		<rect x="103.2" y="212.1" class="st11" width="2.9" height="2.9"/>
		<rect x="107.6" y="212" class="st11" width="2.9" height="2.9"/>
		<g>
			<path class="st14" d="M95.9,219.7c-7.5,0.7-10,10.7-2.9,14.1c1.5,0.7,2.8-1.4,1.4-2.2c-4.5-2.2-3.8-9,1.5-9.4
				C97.4,222.1,97.5,219.5,95.9,219.7L95.9,219.7z"/>
		</g>
		<path class="st14" d="M95.1,230l-3.2,5l5.1,0.3c0.5,0,0.9-0.5,0.6-1L95.1,230z"/>
		<g>
			<path class="st14" d="M101.2,235.4c7.5-1,9.5-11.1,2.2-14.3c-1.5-0.6-2.8,1.6-1.3,2.2c4.6,2,4.2,8.8-1,9.5
				C99.6,233,99.6,235.6,101.2,235.4L101.2,235.4z"/>
		</g>
		<path class="st14" d="M101.5,225l2.9-5.2l-5.1-0.1c-0.5,0-0.8,0.6-0.6,1L101.5,225z"/>
	</g>
	<g>
		<polygon class="st11" points="103.1,153.3 73.8,153.3 73.8,124 96.2,124 103.1,131.3 103.1,131.3 		"/>
		<polygon class="st24" points="96.2,124 95.8,132.4 103.3,131.3 		"/>
		<rect x="76.3" y="127.8" class="st9" width="17.6" height="3.5"/>
		<rect x="76.3" y="134.2" class="st9" width="12.1" height="3.5"/>
		<rect x="91.1" y="134.2" class="st9" width="9.6" height="3.5"/>
		<rect x="76.7" y="140.4" class="st9" width="9.6" height="3.5"/>
		<rect x="76.7" y="146.6" class="st9" width="16.2" height="3.5"/>
		<g class="st26">
			<rect x="99" y="141" width="1.8" height="13.2"/>
			<rect x="87.3" y="141" width="1.8" height="13.2"/>
			<path d="M99,142.6H88.5c-1.2,0-2.2-1-2.2-2.2l0,0c0-1.2,1-2.2,2.2-2.2H99c1.2,0,2.2,1,2.2,2.2l0,0
				C101.2,141.6,100.2,142.6,99,142.6z"/>
			<circle cx="86.3" cy="153.9" r="3.1"/>
			<circle cx="98.6" cy="152.4" r="3.1"/>
		</g>
		<g>
			<rect x="97.7" y="141" class="st24" width="1.8" height="13.2"/>
			<rect x="86" y="141" class="st24" width="1.8" height="13.2"/>
			<path class="st14" d="M97.7,142.5H87.2c-1.2,0-2.2-1-2.2-2.2l0,0c0-1.2,1-2.2,2.2-2.2h10.5c1.2,0,2.2,1,2.2,2.2l0,0
				C99.9,141.5,98.9,142.5,97.7,142.5z"/>
			<circle class="st14" cx="85" cy="153.8" r="3.1"/>
			<circle class="st14" cx="97.3" cy="152.4" r="3.1"/>
		</g>
	</g>
	<g>
		<rect x="221.8" y="61.1" class="st11" width="19.3" height="22.9"/>
		<path class="st12" d="M241.2,61.6c-6.6,6.6-13.1,13.2-19.3,20.1v2.2h10.5c2.9-5.3,5.7-10.6,8.8-15.9V61.6z"/>
		<path class="st13" d="M241.2,68.1c-3.1,5.3-6,10.6-8.8,15.9h8.8V68.1z"/>
		<g>
			<g>
				<g>
					<path class="st11" d="M245.9,15.6c-0.8,2.8-3.8,4.6-6.7,3.9c-0.9-0.2-1.4,1.2-0.4,1.4c3.7,0.9,7.5-1.3,8.5-5
						C247.6,15.1,246.2,14.7,245.9,15.6L245.9,15.6z"/>
				</g>
				<g>
					<path class="st11" d="M246.6,20c-0.5,1.2-1.6,2.1-3,2.1c-1,0-1,1.5,0,1.5c1.8-0.1,3.5-1.1,4.3-2.8C248.2,20,247,19.2,246.6,20
						L246.6,20z"/>
				</g>
			</g>
			<g>
				
					<rect x="240.8" y="73" transform="matrix(0.7071 -0.7071 0.7071 0.7071 20.9794 198.5439)" class="st20" width="18.6" height="1.9"/>
				
					<rect x="242.7" y="72.4" transform="matrix(-0.7071 -0.7071 0.7071 -0.7071 378.3168 303.4843)" class="st20" width="18.6" height="1.9"/>
				
					<rect x="242.1" y="60.8" transform="matrix(0.7071 -0.7071 0.7071 0.7071 29.6416 194.9559)" class="st20" width="16.2" height="1.9"/>
				
					<rect x="243.6" y="60.6" transform="matrix(-0.7071 -0.7071 0.7071 -0.7071 386.1978 283.1212)" class="st20" width="16.3" height="1.9"/>
				
					<rect x="244.5" y="50.5" transform="matrix(0.7071 -0.7071 0.7071 0.7071 36.9574 192.2027)" class="st20" width="12" height="1.9"/>
				
					<rect x="245.4" y="50.6" transform="matrix(-0.7071 -0.7071 0.7071 -0.7071 392.8827 265.8224)" class="st20" width="12.2" height="1.9"/>
				
					<rect x="246" y="43.5" transform="matrix(0.7071 -0.7071 0.7071 0.7071 42.4242 190.542)" class="st20" width="10.4" height="1.2"/>
				
					<rect x="245.6" y="44.3" transform="matrix(-0.7071 -0.7071 0.7071 -0.7071 397.3877 254.3752)" class="st20" width="11.6" height="1.2"/>
				
					<rect x="244.8" y="27.2" transform="matrix(0.9902 0.1393 -0.1393 0.9902 10.0705 -33.765)" class="st9" width="2.8" height="55.8"/>
				
					<rect x="254.2" y="26.9" transform="matrix(-0.9916 0.1291 -0.1291 -0.9916 516.1709 76.1395)" class="st9" width="2.9" height="55.8"/>
				<rect x="238.5" y="80.5" class="st11" width="24" height="3.2"/>
				<rect x="244" y="29.4" class="st20" width="2.9" height="0.7"/>
				<rect x="244" y="33.3" class="st20" width="2.9" height="0.7"/>
				<rect x="254.9" y="29.4" class="st20" width="2.9" height="0.7"/>
				<rect x="254.9" y="33.3" class="st20" width="2.9" height="0.7"/>
				<path class="st11" d="M243.3,37.3L243.3,37.3c-0.6,0-1.1-0.5-1.1-1.1v-9.8c0-0.6,0.5-1.1,1.1-1.1l0,0c0.6,0,1.1,0.5,1.1,1.1v9.8
					C244.5,36.8,244,37.3,243.3,37.3z"/>
				<path class="st11" d="M258.6,37.3L258.6,37.3c-0.6,0-1.1-0.5-1.1-1.1v-9.8c0-0.6,0.5-1.1,1.1-1.1l0,0c0.6,0,1.1,0.5,1.1,1.1v9.8
					C259.8,36.8,259.3,37.3,258.6,37.3z"/>
				<polygon class="st26" points="247.3,37 250.2,37 249.9,39 247.1,39 				"/>
				<polygon class="st26" points="251.8,37.1 252.1,39.3 255,39.2 254.6,36.2 				"/>
				<path class="st9" d="M255.6,37.3h-9.4v-7.6c0-2.1,1.7-3.7,3.7-3.7h1.9c2.1,0,3.7,1.7,3.7,3.7V37.3z"/>
				<path class="st17" d="M255.2,28.1c-3,2.4-6,5.1-9,7.8v1.4h3.6c2-2.6,4-5.1,5.8-7.9C255.5,29,255.4,28.5,255.2,28.1z"/>
				<path class="st16" d="M249.8,37.3h5.8v-7.6c0-0.1,0-0.2,0-0.3C253.8,32.2,251.8,34.8,249.8,37.3z"/>
				<path class="st11" d="M251,34.8L251,34.8c-0.6,0-1.1-0.5-1.1-1.1v-9.8c0-0.6,0.5-1.1,1.1-1.1l0,0c0.6,0,1.1,0.5,1.1,1.1v9.8
					C252.1,34.3,251.6,34.8,251,34.8z"/>
			</g>
		</g>
		<path class="st14" d="M240.9,63.6h-18.8c-1.3,0-2.3-1-2.3-2.3v0c0-1.3,1-2.3,2.3-2.3h18.8c1.3,0,2.3,1,2.3,2.3v0
			C243.2,62.6,242.2,63.6,240.9,63.6z"/>
		<rect x="225.4" y="70.9" class="st20" width="6.9" height="13"/>
		<rect x="221.8" y="63.6" class="st26" width="19.2" height="1.5"/>
		<g class="st26">
			<path d="M272.2,86.8h-11.3c-1.5,0-2.7-1.2-2.7-2.7V63.7c0-1.5,1.2-2.7,2.7-2.7h11.3c1.5,0,2.7,1.2,2.7,2.7v20.5
				C274.9,85.6,273.7,86.8,272.2,86.8z"/>
			<path d="M269.9,82h-6.6c-1.5,0-2.7-1.2-2.7-2.7V66.2c0-1.5,1.2-2.7,2.7-2.7h6.6c1.5,0,2.7,1.2,2.7,2.7v13.1
				C272.5,80.8,271.3,82,269.9,82z"/>
			<path class="st31" d="M272.5,67.4c-3.3,4.7-7.2,9.1-11.4,13.4c0.5,0.7,1.3,1.1,2.2,1.1h5.6c0.9-4.1,2.2-8.1,3.6-12.1V67.4z"/>
			<path class="st13" d="M268.9,82h0.9c1.5,0,2.7-1.2,2.7-2.7v-9.5C271.1,73.9,269.9,77.9,268.9,82z"/>
			<circle cx="267.2" cy="84.1" r="1.3"/>
		</g>
		<g>
			<path class="st11" d="M273.7,86.8h-11.3c-1.5,0-2.7-1.2-2.7-2.7V63.7c0-1.5,1.2-2.7,2.7-2.7h11.3c1.5,0,2.7,1.2,2.7,2.7v20.5
				C276.4,85.6,275.2,86.8,273.7,86.8z"/>
			<path class="st9" d="M271.4,82h-6.6c-1.5,0-2.7-1.2-2.7-2.7V66.2c0-1.5,1.2-2.7,2.7-2.7h6.6c1.5,0,2.7,1.2,2.7,2.7v13.1
				C274,80.8,272.8,82,271.4,82z"/>
			<path class="st12" d="M274,67.4c-3.3,4.7-7.2,9.1-11.4,13.4c0.5,0.7,1.3,1.1,2.2,1.1h5.6c0.9-4.1,2.2-8.1,3.6-12.1V67.4z"/>
			<path class="st13" d="M270.4,82h0.9c1.5,0,2.7-1.2,2.7-2.7v-9.5C272.6,73.9,271.4,77.9,270.4,82z"/>
			<circle class="st14" cx="268.7" cy="84.1" r="1.3"/>
		</g>
	</g>
	<path class="st14" d="M148.2,264.4c0-0.1,0.1-0.1,0.2-0.2c0.8-0.5,1.6-0.9,2.4-1.4c0.1-0.1,0.2-0.1,0.3,0c0.8,0.4,1.5,0.9,2.3,1.3
		c0,0,0.1,0,0.1,0c0.6-0.4,1.3-0.8,1.9-1.1c0,0,0,0,0,0c0,0,0,0-0.1,0c-1.4-0.8-2.8-1.6-4.1-2.4c0,0-0.1,0-0.1,0
		c-0.3,0.2-0.6,0.3-0.9,0.1c-0.3-0.1-0.5-0.5-0.5-0.8c0-0.4,0.3-0.7,0.7-0.8c0,0,0,0,0.1,0c0.1,0,0.2,0,0.2,0c0,0,0.1,0,0.1,0
		c0.4,0.1,0.7,0.5,0.6,0.9c0,0,0,0.1,0,0.1c1.1,0.6,2.2,1.3,3.3,1.9c0.4,0.2,0.8,0.5,1.2,0.7c0.2,0.1,0.2,0.3,0,0.4
		c-0.7,0.4-1.4,0.8-2.1,1.2c0,0,0,0-0.1,0c0,0,0,0,0,0c0.7,0.4,1.4,0.8,2.1,1.2c0.1,0,0.1,0.1,0.1,0.2c0,0.1-0.1,0.2-0.1,0.2
		c-1.5,0.9-3,1.7-4.5,2.6c-0.1,0-0.1,0.1-0.1,0.1c0,0.4-0.3,0.7-0.7,0.8c-0.5,0.1-1-0.4-0.9-0.9c0.1-0.4,0.2-0.6,0.6-0.7
		c0.3-0.1,0.6,0,0.9,0.3c0,0,0,0,0,0c1.4-0.8,2.8-1.6,4.2-2.4c0,0,0,0-0.1,0c-0.6-0.4-1.3-0.7-1.9-1.1c0,0-0.1,0-0.1,0
		c-0.8,0.4-1.5,0.9-2.3,1.3c-0.1,0.1-0.2,0.1-0.3,0c-0.8-0.5-1.6-0.9-2.4-1.4c-0.1,0-0.1-0.1-0.2-0.2
		C148.2,264.5,148.2,264.4,148.2,264.4z M153,264.5C153,264.4,153,264.4,153,264.5c-0.7-0.4-1.4-0.8-2-1.2c0,0-0.1,0-0.1,0
		c-0.6,0.4-1.3,0.7-1.9,1.1c0,0,0,0-0.1,0c0,0,0.1,0,0.1,0c0.6,0.4,1.3,0.7,1.9,1.1c0.1,0,0.1,0,0.1,0c0.6-0.4,1.3-0.7,1.9-1.1
		C153,264.5,153,264.5,153,264.5z M150.7,260.3c0.2,0,0.4-0.2,0.4-0.4c0-0.2-0.2-0.4-0.4-0.4c-0.2,0-0.4,0.2-0.4,0.4
		C150.3,260.2,150.5,260.3,150.7,260.3z M150.7,268.5c-0.2,0-0.4,0.2-0.4,0.4c0,0.2,0.2,0.4,0.4,0.4c0.2,0,0.4-0.2,0.4-0.4
		C151,268.6,150.9,268.5,150.7,268.5z"/>
	<g>
		<defs>
			<path id="SVGID_1_" d="M87.5,97.3L96.6,73l-26.8,2.5c-2.2,0.2-3.3,2.8-1.9,4.5l14.9,18C84.2,99.7,86.8,99.3,87.5,97.3z"/>
		</defs>
		<clipPath id="SVGID_2_">
			<use xlink:href="#SVGID_1_"  style="overflow:visible;"/>
		</clipPath>
		<g class="st32">
			<path class="st11" d="M87.5,97.3L96.6,73l-26.8,2.5c-2.2,0.2-3.3,2.8-1.9,4.5l14.9,18C84.2,99.7,86.8,99.3,87.5,97.3z"/>
			<g>
				<g>
					<line class="st33" x1="91.8" y1="87.7" x2="77.1" y2="98.5"/>
					<line class="st33" x1="96.3" y1="77.1" x2="75.1" y2="92.7"/>
					<line class="st33" x1="94.5" y1="70.9" x2="70.3" y2="88.7"/>
					<line class="st33" x1="89.5" y1="98.5" x2="67.3" y2="71.9"/>
					<line class="st33" x1="93" y1="91.1" x2="73.2" y2="68.4"/>
					<line class="st33" x1="97" y1="86.2" x2="77.2" y2="63.6"/>
					<line class="st33" x1="82.7" y1="72" x2="65.4" y2="84.7"/>
				</g>
				<line class="st33" x1="86.5" y1="99.7" x2="67.1" y2="76.5"/>
				<line class="st33" x1="90.7" y1="94.7" x2="73.6" y2="73.6"/>
				<line class="st33" x1="94.5" y1="88.3" x2="77.7" y2="68"/>
				<line class="st33" x1="97.5" y1="82.2" x2="87.1" y2="69.1"/>
				<line class="st33" x1="80.1" y1="100.3" x2="92.1" y2="91.9"/>
				<line class="st33" x1="75.4" y1="96.1" x2="98.8" y2="79.3"/>
				<line class="st33" x1="73.2" y1="90.3" x2="98.1" y2="72.4"/>
				<line class="st33" x1="69" y1="85.5" x2="91" y2="69.7"/>
				<line class="st33" x1="65.1" y1="81.1" x2="78" y2="71.4"/>
			</g>
		</g>
	</g>
	<g>
		<defs>
			<path id="SVGID_3_" d="M143,51.5l-25.5,4.7l7.2-26c0.6-2.1,3.3-2.7,4.8-1.1L144.6,47C146,48.6,145.1,51.1,143,51.5z"/>
		</defs>
		<clipPath id="SVGID_4_">
			<use xlink:href="#SVGID_3_"  style="overflow:visible;"/>
		</clipPath>
		<g class="st34">
			<path class="st11" d="M143,51.5l-25.5,4.7l7.2-26c0.6-2.1,3.3-2.7,4.8-1.1L144.6,47C146,48.6,145.1,51.1,143,51.5z"/>
			<g>
				<g>
					<line class="st33" x1="132.9" y1="54" x2="146" y2="41.5"/>
					<line class="st33" x1="121.7" y1="56.6" x2="140.7" y2="38.5"/>
					<line class="st33" x1="115.8" y1="53.7" x2="137.6" y2="33"/>
					<line class="st33" x1="143.9" y1="53.7" x2="121.6" y2="27.1"/>
					<line class="st33" x1="136" y1="55.8" x2="117.1" y2="32.4"/>
					<line class="st33" x1="130.5" y1="58.9" x2="111.6" y2="35.5"/>
					<line class="st33" x1="119" y1="42.3" x2="134.5" y2="27.5"/>
				</g>
				<line class="st33" x1="145.6" y1="50.9" x2="126.1" y2="27.8"/>
				<line class="st33" x1="139.9" y1="54.1" x2="122.1" y2="33.7"/>
				<line class="st33" x1="133" y1="56.8" x2="115.9" y2="36.7"/>
				<line class="st33" x1="126.5" y1="58.7" x2="115.3" y2="46.2"/>
				<line class="st33" x1="147.3" y1="44.7" x2="136.9" y2="55.1"/>
				<line class="st33" x1="144" y1="39.4" x2="123.3" y2="59.4"/>
				<line class="st33" x1="138.7" y1="36.2" x2="116.7" y2="57.6"/>
				<line class="st33" x1="134.7" y1="31.2" x2="115.3" y2="50.1"/>
				<line class="st33" x1="131" y1="26.6" x2="119.2" y2="37.6"/>
			</g>
		</g>
	</g>
</g>
</svg>
