<svg width="128" height="128" xmlns="http://www.w3.org/2000/svg">

 <g>
  <title>background</title>
  <rect fill="none" id="canvas_background" height="402" width="582" y="-1" x="-1"/>
 </g>
 <g>
  <title>Layer 1</title>
  <path id="svg_1" fill="#2C3E50" d="m111,25c3.3,0 6,2.7 6,6l0,66c0,3.3 -2.7,6 -6,6l-94,0c-3.3,0 -6,-2.7 -6,-6l0,-66c0,-3.3 2.7,-6 6,-6l94,0m0,-4l-94,0c-5.5,0 -10,4.5 -10,10l0,66c0,5.5 4.5,10 10,10l94,0c5.5,0 10,-4.5 10,-10l0,-66c0,-5.5 -4.5,-10 -10,-10l0,0z"/>
  <path id="svg_2" fill="#2C3E50" d="m111.5,44l-94.5,0c-0.6,0 -1,-0.4 -1,-1s0.4,-1 1,-1l94.5,0c0.6,0 1,0.4 1,1s-0.4,1 -1,1z"/>
  <circle id="svg_3" r="3" fill="#2C3E50" cy="33.8" cx="21.5"/>
  <circle id="svg_4" r="3" fill="#2C3E50" cy="33.8" cx="30.5"/>
  <circle id="svg_5" r="3" fill="#2C3E50" cy="33.8" cx="39.5"/>
  <path id="svg_6" fill="#2b78c2" d="m51.8,81.8l-17.6,-7.8l0,-2.5l17.6,-8.8l0,4.3l-12.2,5.6l12.2,5l0,4.2z"/>
  <path id="svg_7" fill="#2b78c2" d="m70.3,61.3l-8.3,22.3l-4.2,0l8.3,-22.2l4.2,0l0,-0.1z"/>
  <path id="svg_8" fill="#2b78c2" d="m76.2,77.6l12.2,-5l-12.2,-5.6l0,-4.3l17.6,8.8l0,2.5l-17.6,7.8l0,-4.2z"/>
 </g>
</svg>