<svg width="128" height="128" xmlns="http://www.w3.org/2000/svg">

 <g>
  <title>background</title>
  <rect fill="none" id="canvas_background" height="402" width="582" y="-1" x="-1"/>
 </g>
 <g>
  <title>Layer 1</title>
  <path id="svg_1" fill="#2b78c2" d="m87.1,54.8c0,-0.1 -0.1,-0.3 -0.2,-0.5c-0.3,-0.3 -0.7,-0.2 -1.4,0.4l-22.3,16.1c-0.4,0.3 -0.6,0.8 -0.6,1.3c0,0.4 0.1,0.7 0.4,1c0.6,0.7 1.6,0.8 2.3,0.3l20.9,-17.7c0.5,-0.3 0.9,-0.6 0.9,-0.9l0,0z"/>
  <path id="svg_2" fill="#2C3E50" d="m64,18.9c-30.4,0 -55.1,24.5 -55.1,54.9c0,11.7 3.6,22.2 9.8,31.2l90.4,0c6.2,-9 9.8,-19.5 9.8,-31.2c0.2,-30.4 -24.5,-54.9 -54.9,-54.9zm43.1,82.1l-86.2,0c-5.2,-8 -8,-17.4 -8,-27.2c0,-28.2 22.9,-51 51.1,-51s51.1,22.8 51.1,50.9c0,9.8 -2.8,19.3 -8,27.3z"/>
  <path id="svg_3" fill="#2b78c2" d="m29.9,99c-5.3,-7 -8.4,-15.7 -8.4,-25.2c0,-23.4 19.1,-42.4 42.5,-42.4s42.5,18.9 42.5,42.4c0,9.5 -3.1,18.3 -8.4,25.3l2.5,0c5,-7 8,-15.8 8,-25.2c0,-24.6 -19.9,-44.4 -44.5,-44.4s-44.6,19.7 -44.6,44.2c0,9.4 3,18.3 8,25.3l2.4,0z"/>
  <path id="svg_4" fill="#2b78c2" d="m64,37.1c-0.6,0 -1,-0.4 -1,-1l0,-4.6c0,-0.6 0.4,-1 1,-1s1,0.4 1,1l0,4.6c0,0.6 -0.4,1 -1,1z"/>
  <path id="svg_5" fill="#2b78c2" d="m26.9,73c0,0.6 -0.4,1 -1,1l-4.6,0c-0.6,0 -1,-0.4 -1,-1c0,-0.6 0.4,-1 1,-1l4.6,0c0.6,0 1,0.4 1,1z"/>
  <path id="svg_6" fill="#2b78c2" d="m37.3,48c-0.4,0.4 -1,0.4 -1.4,0l-3.3,-3.3c-0.4,-0.4 -0.4,-1 0,-1.4c0.4,-0.4 1,-0.4 1.4,0l3.3,3.3c0.4,0.4 0.4,1 0,1.4z"/>
  <path id="svg_7" fill="#2b78c2" d="m90.4,48c0.4,0.4 1,0.4 1.4,0l3.3,-3.3c0.4,-0.4 0.4,-1 0,-1.4c-0.4,-0.4 -1,-0.4 -1.4,0l-3.3,3.3c-0.4,0.4 -0.4,1 0,1.4z"/>
  <path id="svg_8" fill="#2b78c2" d="m107.3,73c0,0.6 -0.4,1 -1,1l-4.6,0c-0.6,0 -1,-0.4 -1,-1c0,-0.6 0.4,-1 1,-1l4.6,0c0.6,0 1,0.4 1,1z"/>
 </g>
</svg>