<?xml version="1.0" encoding="utf-8"?>
<!-- Generator: Adobe Illustrator 19.2.1, SVG Export Plug-In . SVG Version: 6.00 Build 0)  -->
<svg version="1.1" xmlns="http://www.w3.org/2000/svg" xmlns:xlink="http://www.w3.org/1999/xlink" x="0px" y="0px"
	 viewBox="0 0 350 350" style="enable-background:new 0 0 350 350;" xml:space="preserve">
<style type="text/css">
	.st0{opacity:0.68;}
	.st1{opacity:0.53;fill:#0071BC;}
	.st2{opacity:0.24;fill:#29ABE2;}
	.st3{opacity:0.53;fill:#72C2DB;}
	.st4{opacity:0.11;fill:#0071BC;}
	.st5{opacity:6.000000e-002;fill:#0071BC;}
	.st6{opacity:0.12;fill:#0071BC;}
	.st7{opacity:0.24;fill:#0071BC;}
	.st8{fill:#CCCCCC;}
	.st9{fill:#F2F2F2;}
	.st10{opacity:0.27;}
	.st11{fill:#FFFFFF;}
	.st12{opacity:6.000000e-002;fill:#4D4D4D;}
	.st13{opacity:0.12;}
	.st14{fill:#304062;}
	.st15{fill:none;stroke:#FFFFFF;stroke-miterlimit:10;}
	.st16{opacity:0.13;}
	.st17{opacity:5.000000e-002;}
	.st18{opacity:0.16;}
	.st19{fill:#00A99D;}
	.st20{fill:#E6E6E6;}
	.st21{opacity:0.5;fill:#00A99D;}
	.st22{opacity:0.66;fill:#00A99D;}
	.st23{opacity:8.000000e-002;}
	.st24{fill:#B3B3B3;}
	.st25{fill:#3C507A;}
	.st26{opacity:0.17;}
	.st27{fill:#999999;}
	.st28{opacity:3.000000e-002;fill:#4D4D4D;}
	.st29{opacity:0.15;}
	.st30{opacity:0.68;fill:#304062;}
	.st31{opacity:6.000000e-002;}
	.st32{clip-path:url(#SVGID_2_);}
	.st33{fill:none;stroke:#304062;stroke-miterlimit:10;}
	.st34{clip-path:url(#SVGID_4_);}
	.st35{opacity:0.66;fill:#3C507A;}
	.st36{fill:#494949;}
	.st37{clip-path:url(#SVGID_6_);}
	.st38{fill:none;stroke:#3C507A;stroke-miterlimit:10;}
	.st39{clip-path:url(#SVGID_8_);}
	.st40{clip-path:url(#SVGID_10_);}
	.st41{clip-path:url(#SVGID_12_);}
</style>
<g id="Layer_1">
	<ellipse class="st2" cx="137.8" cy="187.5" rx="90.1" ry="91.4"/>
	<ellipse class="st2" cx="117.8" cy="187.7" rx="65.5" ry="68.9"/>
	<circle class="st2" cx="106.3" cy="191.3" r="42.3"/>
	<path class="st2" d="M80.7,64.4H44.4c-11,0-20-9-20-20v0c0-11,9-20,20-20h36.3c11,0,20,9,20,20v0C100.7,55.4,91.7,64.4,80.7,64.4z"
		/>
	<path class="st2" d="M329.4,283.7h-36.3c-11,0-20-9-20-20v0c0-11,9-20,20-20h36.3c11,0,20,9,20,20v0
		C349.4,274.7,340.4,283.7,329.4,283.7z"/>
	<g>
		<polygon class="st3" points="280,51.9 280,52 280,52 		"/>
		<path class="st3" d="M306.3,101h-17.5H256c-9.8,0-17.7-8.5-17.7-18.3c0-8.2,5.5-15.7,12.9-17.7H264c9,0,16-7,16-16c0-9-7-17-16-17
			h-74.5c-9,0-16.5,8-16.5,17v1h-33.4C117.8,50,100,67.7,100,89.4V98H49.4c-13.9,0-25.2,10.9-25.1,24.9c0.1,12.2,9,23.1,20.7,24.1
			h12.4c9.5,0,17.2,8,17.2,17.5S66.9,182,57.4,182H41.1C23,183,9,198.1,9,216.5v0c0,19.1,15.4,34.6,34.5,34.6c9.9,0,18,0,18.5,0
			h58.5c9.2,0,16.8,7.8,16.8,17c0,9.3-7.6,17-16.8,17H92.6c0,0,0,0,0,0H77.8c-9.2,0-16.8,7.2-16.9,16.3c-0.1,9.3,7.4,16.7,16.7,16.7
			h101.1c-0.4,1.5-0.7,3.1-0.7,4.7v0.2c0,11,9.1,20.2,20.1,20.2h56.2c11,0,19.7-9.2,19.7-20.2v-0.1c0-2.1-0.2-4.1-0.8-6
			c7.9-2.9,13.8-10.5,13.7-19.2c-0.1-9.4-6.9-17.2-14.9-19.5v0h-5.5l-19.4-0.7c-9.1-2-15.9-10.4-15.9-20.2
			c0.1-11.2,9.4-20.1,20.6-20.1h28c2,0,3.9,0,5.8,0h2.9c10,0,18.1-7.7,17.9-17.7c-0.1-9.9-8.3-17.3-18.2-17.3h0
			c-11.3,0-20.4-9.4-20.3-20.7c0.1-11.2,9.4-20.3,20.6-20.3h24.2c12.3-3,21.4-13.7,21.4-26.8V128C334,112.7,321.6,101,306.3,101z"/>
	</g>
	<path class="st3" d="M327.9,84.4h-32.1c-6.6,0-12-5.4-12-12v-4.2c0-6.6,5.4-12,12-12h32.1c6.6,0,12,5.4,12,12v4.2
		C339.9,79,334.5,84.4,327.9,84.4z"/>
	<path class="st3" d="M33.7,291.3L33.7,291.3c-7.7,0-14-6.3-14-14v-0.1c0-7.7,6.3-14,14-14h0c7.7,0,14,6.3,14,14v0.1
		C47.8,285,41.5,291.3,33.7,291.3z"/>
	<path class="st3" d="M314.4,339.2L314.4,339.2c-7.7,0-14-6.3-14-14V325c0-7.7,6.3-14,14-14h0c7.7,0,14,6.3,14,14v0.1
		C328.4,332.9,322.1,339.2,314.4,339.2z"/>
	<path class="st3" d="M144.7,36.5L144.7,36.5c-7.7,0-14-6.3-14-14v-0.1c0-7.7,6.3-14,14-14h0c7.7,0,14,6.3,14,14v0.1
		C158.7,30.2,152.4,36.5,144.7,36.5z"/>
</g>
<g id="Layer_2">
	<g>
		<polygon class="st8" points="55.2,160.6 61.4,156.8 64.6,164.7 57.8,167.3 		"/>
		<path class="st9" d="M52.2,172H70v-3.9c0-2.1-1.8-3.9-3.9-3.9h-10c-2.1,0-3.9,1.8-3.9,3.9V172z"/>
		
			<rect x="52.2" y="169.8" transform="matrix(-1 -4.490864e-011 4.490864e-011 -1 122.1575 340.75)" class="st10" width="17.8" height="1.3"/>
		<path class="st10" d="M62.4,159.2l-1.5,1.6c-0.8,0.8-1.8,1.5-2.9,1.9l-1.7,0.6l-1-2.5l6.4-4L62.4,159.2z"/>
		<g>
			
				<rect x="45.5" y="131.4" transform="matrix(0.8139 -0.581 0.581 0.8139 -71.5497 52.7434)" class="st9" width="2.1" height="13.4"/>
			
				<rect x="40.8" y="132.8" transform="matrix(0.9901 -0.1403 0.1403 0.9901 -19.1656 7.2528)" class="st9" width="2.1" height="13.4"/>
			
				<rect x="47.9" y="127.1" transform="matrix(-0.3735 0.9276 -0.9276 -0.3735 191.3978 138.3583)" class="st9" width="2.1" height="13.4"/>
			<path class="st11" d="M65.2,128l-36.3,25.9l0,0C36,164,50,166.3,60,159.1l0,0C70,152,72.4,138,65.2,128L65.2,128z"/>
			<path class="st12" d="M60.3,131.5c-5.1,10.6-10.2,20.9-15.2,31.8c-1.6-0.1-3.1-0.7-4.7-1.2c0-6,0.3-11.3,0.7-17L60.3,131.5z"/>
			<path class="st13" d="M40.4,162.2c-4.6-1.4-8.5-4-11.5-8.2l12.3-8.8C40.7,150.8,40.4,156.2,40.4,162.2z"/>
			<ellipse transform="matrix(0.8139 -0.581 0.581 0.8139 -68.3943 48.095)" class="st14" cx="40.9" cy="130.8" rx="3.1" ry="3.1"/>
			<polygon class="st10" points="55.2,135.2 53.1,136.6 51.8,136.1 53.7,134.6 			"/>
			<polygon class="st10" points="48.9,139.6 47.2,140.8 46.6,139.9 48.3,138.6 			"/>
			<polygon class="st10" points="41.5,144.9 43.5,143.6 43.4,142.4 41.4,143.8 			"/>
		</g>
		<path class="st11" d="M72.3,181.3H50.8c-2.8,0-5.1-2.3-5.1-5.1v0c0-2.8,2.3-5.1,5.1-5.1h21.5c2.8,0,5.1,2.3,5.1,5.1v0
			C77.4,178.9,75.1,181.3,72.3,181.3z"/>
		<path class="st13" d="M45.7,176.1c0,0.1,0,0.1,0,0.2v0c0,2.8,2.3,5.1,5.1,5.1h14.3C58.6,179.5,52.2,178.2,45.7,176.1z"/>
		<path class="st12" d="M71.8,181.4c-7.7-3-15.5-6.2-23.1-9.8c-1.8,0.8-3,2.5-3.1,4.5c6.5,2.2,13,3.4,19.4,5.3H71.8z"/>
	</g>
	<g>
		<g>
			<path class="st24" d="M73.7,177.6c2.6,3.9-1.1,7.4-1.5,11.3c-0.2,2,0.2,3.9,1.4,5.5c2.8,3.7,6.7,3,9.8,0.3
				c1.1-0.9-0.5-2.5-1.6-1.6c-4.1,3.6-8.1-0.3-7.3-4.8c0.4-2,1.6-3.5,2.3-5.3c1-2.5,0.1-4.4-1.3-6.5
				C74.8,175.3,72.9,176.4,73.7,177.6L73.7,177.6z"/>
		</g>
	</g>
</g>
<g id="Layer_3">
	<g>
		<g>
			<rect x="162.7" y="138.6" class="st11" width="3.3" height="31.9"/>
			<rect x="162.7" y="143" class="st26" width="3.4" height="2.7"/>
			<circle class="st14" cx="164.3" cy="140.2" r="4.1"/>
			<path class="st11" d="M175.7,208.1H87.3c-2.3,0-4.1-1.8-4.1-4.1v-25.3c0-2.3,1.8-4.1,4.1-4.1h88.5c2.3,0,4.1,1.8,4.1,4.1V204
				C179.8,206.3,178,208.1,175.7,208.1z"/>
			<path class="st13" d="M83.3,204.4c0,2,1.6,3.7,3.7,3.7h39.7c-14.4-9.4-28.7-19.7-43.5-28.7L83.3,204.4z"/>
			<path class="st12" d="M85.2,175.2c-1.2,1-2,2.4-2,4.1v0.1c14.9,9,29.1,19.3,43.5,28.7h49c2.2,0,4.1-1.6,4.1-3.8
				C148.7,194.1,117.1,183.9,85.2,175.2z"/>
			<path class="st24" d="M106.1,212.2h-15c-1.8,0-3.3-1.5-3.3-3.3v-0.9h21.5v0.9C109.3,210.8,107.9,212.2,106.1,212.2z"/>
			<path class="st24" d="M170.8,212.2h-15c-1.8,0-3.3-1.5-3.3-3.3v-0.9h21.5v0.9C174.1,210.8,172.6,212.2,170.8,212.2z"/>
			<rect x="83.2" y="195.5" class="st14" width="96.7" height="4.7"/>
			<path class="st24" d="M170,174.6h-10.7v-1.1c0-2.3,1.9-4.3,4.3-4.3h2.2c2.3,0,4.2,1.9,4.2,4.3V174.6z"/>
			<circle class="st27" cx="93.3" cy="187.1" r="2.9"/>
			<circle class="st27" cx="111.2" cy="187.1" r="2.9"/>
			<circle class="st27" cx="102.2" cy="187.1" r="2.9"/>
			<rect x="83.2" y="200.2" class="st26" width="96.7" height="1.9"/>
			<rect x="87.9" y="208.1" class="st26" width="21.5" height="1.1"/>
			<rect x="152.6" y="208.1" class="st26" width="21.5" height="1.1"/>
			<polygon class="st26" points="170,174.6 159.2,174.6 159.5,172.9 169.7,172.9 			"/>
		</g>
		<g>
			<path class="st11" d="M169.1,130c3.7,0.5,6.4,4,6,7.7c-0.1,1.2,1.7,1.5,1.9,0.3c0.5-4.7-2.9-9.2-7.6-9.9
				C168.1,127.9,167.8,129.8,169.1,130L169.1,130z"/>
		</g>
		<g>
			<path class="st11" d="M174.5,128.4c1.6,0.5,2.9,1.7,3.2,3.4c0.2,1.2,2.1,1,1.9-0.2c-0.4-2.3-2-4.2-4.3-4.9
				C174.1,126.3,173.3,128.1,174.5,128.4L174.5,128.4z"/>
		</g>
	</g>
	<path class="st14" d="M164.2,185.6c0-0.1,0.1-0.2,0.2-0.2c1-0.6,2.1-1.2,3.1-1.8c0.1-0.1,0.2-0.1,0.4,0c1,0.6,2,1.1,3,1.7
		c0,0,0.1,0,0.1,0c0.8-0.5,1.7-1,2.5-1.4c0,0,0,0,0.1,0c0,0-0.1,0-0.1-0.1c-1.8-1-3.5-2-5.3-3.1c0,0-0.1,0-0.1,0
		c-0.3,0.3-0.8,0.4-1.2,0.2c-0.4-0.2-0.6-0.6-0.6-1c0-0.5,0.4-0.9,0.8-1c0,0,0.1,0,0.1,0c0.1,0,0.2,0,0.3,0c0,0,0.1,0,0.1,0
		c0.5,0.1,0.8,0.6,0.8,1.1c0,0.1,0,0.1,0.1,0.1c1.4,0.8,2.8,1.6,4.2,2.4c0.5,0.3,1.1,0.6,1.6,0.9c0.3,0.1,0.2,0.4,0,0.6
		c-0.9,0.5-1.7,1-2.6,1.5c0,0-0.1,0-0.1,0.1c0,0,0,0,0.1,0c0.9,0.5,1.8,1,2.7,1.5c0.1,0.1,0.2,0.1,0.2,0.3c0,0.1-0.1,0.2-0.2,0.3
		c-1.9,1.1-3.8,2.2-5.8,3.3c-0.1,0-0.1,0.1-0.1,0.2c0,0.5-0.4,0.9-0.9,1c-0.7,0.1-1.3-0.5-1.2-1.2c0.1-0.5,0.3-0.8,0.8-0.9
		c0.4-0.1,0.8,0,1.1,0.3c0,0,0,0,0,0c1.8-1,3.6-2.1,5.4-3.1c0,0-0.1,0-0.1-0.1c-0.8-0.5-1.6-0.9-2.5-1.4c-0.1,0-0.1,0-0.2,0
		c-1,0.6-2,1.1-2.9,1.7c-0.1,0.1-0.3,0.1-0.4,0c-1-0.6-2.1-1.2-3.1-1.8c-0.1-0.1-0.2-0.1-0.2-0.2
		C164.2,185.7,164.2,185.7,164.2,185.6z M170.3,185.7C170.3,185.7,170.3,185.7,170.3,185.7c-0.9-0.5-1.7-1-2.6-1.5
		c-0.1,0-0.1,0-0.1,0c-0.8,0.5-1.6,0.9-2.4,1.4c0,0-0.1,0-0.1,0.1c0,0,0.1,0,0.1,0.1c0.8,0.5,1.6,0.9,2.4,1.4c0.1,0,0.1,0,0.2,0
		c0.8-0.5,1.6-0.9,2.4-1.4C170.2,185.8,170.2,185.7,170.3,185.7z M167.3,180.4c0.3,0,0.5-0.2,0.5-0.5c0-0.3-0.2-0.5-0.5-0.5
		c-0.3,0-0.5,0.2-0.5,0.5C166.8,180.2,167.1,180.4,167.3,180.4z M167.3,190.8c-0.3,0-0.5,0.2-0.5,0.5c0,0.2,0.2,0.5,0.5,0.5
		c0.3,0,0.5-0.2,0.5-0.5C167.8,191,167.6,190.8,167.3,190.8z"/>
	<g>
		<g>
			<g>
				<path class="st11" d="M177.9,48.6c-0.8,2.8-3.8,4.6-6.7,3.9c-0.9-0.2-1.4,1.2-0.4,1.4c3.7,0.9,7.5-1.3,8.5-5
					C179.6,48.1,178.2,47.7,177.9,48.6L177.9,48.6z"/>
			</g>
			<g>
				<path class="st11" d="M178.6,53c-0.5,1.2-1.6,2.1-3,2.1c-1,0-1,1.5,0,1.5c1.8-0.1,3.5-1.1,4.3-2.8C180.2,53,179,52.2,178.6,53
					L178.6,53z"/>
			</g>
		</g>
		<g>
			<g>
				<path class="st20" d="M187.7,34.3c-1.9,19,7.6,37.7,23.6,47.8c4.6,2.9,8.8-4.4,4.2-7.2c-13.7-8.7-21.1-24.5-19.5-40.6
					C196.6,28.9,188.2,28.9,187.7,34.3L187.7,34.3z"/>
			</g>
			<path class="st11" d="M242.8,100.6H202V80.2c0-11.3,9.1-20.4,20.4-20.4h0c11.3,0,20.4,9.1,20.4,20.4V100.6z"/>
			<path class="st28" d="M242.8,80.3c0-6.4-2.9-12.1-7.5-15.8c-10.9,11.8-21.1,24-31.8,36.2h6.2c11.7-5,22.3-11.6,33.1-17.9V80.3z"
				/>
			<path class="st17" d="M242.8,82.8c-10.9,6.3-21.5,12.9-33.1,17.9h33.1V82.8z"/>
			<path class="st9" d="M225.6,66.1h-3.4c-4.4,0-8-3.6-8-8v-3.8l16.2-2.9l-0.1,10.1C230.2,64,228.2,66.1,225.6,66.1z"/>
			<path class="st29" d="M214,53.4c-1,2.7-0.2,5.6,1,8.3c0.4,0,0.9-0.3,1.3-0.3c2.2-0.3,4.3-0.8,6.4-1.6c2.8-1,5.3-2.6,7.5-4.6
				c0-4.4,0.1-8.6,0.5-13C224.6,44.9,219.7,49.8,214,53.4z"/>
			<ellipse class="st9" cx="222.2" cy="35" rx="15.1" ry="20.5"/>
			<path class="st14" d="M201.5,46.4c-1,1.2-2,2.6-2.2,4.2c-0.1,0.9,0.1,1.7,0.4,2.6c1.1,3,3.9,5.2,7,6.1c3.1,0.9,6.4,0.8,9.6,0.3
				c2.2-0.3,4.3-0.8,6.4-1.6c5.4-2,10-6.1,12.6-11.3s3.2-11.3,1.7-16.9c-0.3-1.1-0.7-2.3-1.6-3.1s-2.2-1.3-3.2-0.8
				c-1.9,0.9-1.7,3.5-2.2,5.5c-0.7,2.6-3.2,4.5-5.8,5.3c-2.6,0.8-5.4,0.6-8.1,0.4c-3-0.2-7.1-0.9-9.3,1.7
				C204.9,41,203.4,44.1,201.5,46.4z"/>
			<ellipse class="st9" cx="218.4" cy="47" rx="3.7" ry="2.6"/>
			<path class="st14" d="M234.1,22.4l-22.7,0c-2.4,0-4.4-2-4.4-4.4v0c0-2.4,2-4.4,4.4-4.4h18.3c2.4,0,4.4,2,4.4,4.4V22.4z"/>
			<path class="st14" d="M212.3,22.4L212.3,22.4c-3.4,0-6.2-2.8-6.2-6.2v0c0-3.4,2.8-6.2,6.2-6.2h0c3.4,0,6.2,2.8,6.2,6.2v0
				C218.4,19.6,215.7,22.4,212.3,22.4z"/>
			<path class="st14" d="M219.7,18.2L219.7,18.2c-2,0-3.7-1.7-3.7-3.7v0c0-2,1.7-3.7,3.7-3.7h0c2,0,3.7,1.7,3.7,3.7v0
				C223.5,16.5,221.8,18.2,219.7,18.2z"/>
			<ellipse class="st9" cx="232.4" cy="30.8" rx="2.8" ry="3.7"/>
			<g>
				<path class="st14" d="M198.3,74.4l-6.8,3.9c-2,1.2-4.6,0.5-5.8-1.6l-6.1-10.6c-1.2-2-0.5-4.6,1.6-5.8l6.8-3.9
					c2-1.2,4.6-0.5,5.8,1.6l6.1,10.6C201,70.6,200.3,73.2,198.3,74.4z"/>
				<path class="st11" d="M197,73l-6.1,3.5c-1,0.6-2.2,0.2-2.7-0.7L182,65c-0.6-1-0.2-2.2,0.7-2.7l6.1-3.5c1-0.6,2.2-0.2,2.7,0.7
					l6.2,10.8C198.3,71.2,198,72.5,197,73z"/>
				<path class="st29" d="M188.6,72c0.7-0.8,1.8-1.3,2.9-1.3c1.2,0,2.4,0.5,3.4,1.3s1.7,1.8,2.4,2.8c-0.9,0.6-1.8,1.1-2.7,1.7
					c-0.1,0.1-0.2,0.1-0.3,0.1c-0.1,0-0.2-0.1-0.4-0.2c-1-0.8-2.5-0.4-3.8-0.3c-1,0.1-2.7,0.5-3-0.7C186.9,74.5,188,72.7,188.6,72z"
					/>
				<g>
					<g>
						<path class="st20" d="M212.6,84.8c-6.3,0-14.7-2.5-17.3-8.9c-2-4.9-10.1-2.8-8.1,2.2c6.9,16.7,29.8,19.2,43.2,9.1
							c-1.2-2.5-2.6-4.9-4.2-7.2C222.5,83.2,217.8,84.9,212.6,84.8z"/>
						<path class="st11" d="M237.3,79.1c2.5-4.8-4.7-9-7.2-4.2c-1.1,2-2.4,3.7-3.9,5.1c1.6,2.3,3,4.7,4.2,7.2
							C233.2,85.1,235.6,82.4,237.3,79.1z"/>
					</g>
					<polygon class="st29" points="227.1,79 232.4,85.5 233.8,84.1 228.5,77.5 					"/>
				</g>
				<path class="st9" d="M232.9,88.3L232.9,88.3c-0.8,0.7-2.1,0.6-2.8-0.2l-6.5-7.6c-0.7-0.8-0.6-2.1,0.2-2.8v0
					c0.8-0.7,2.1-0.6,2.8,0.2l6.5,7.6C233.9,86.3,233.8,87.6,232.9,88.3z"/>
			</g>
		</g>
	</g>
	<g>
		<g>
			<g>
				<path class="st11" d="M222.9,114.6c-0.8,2.8-3.8,4.6-6.7,3.9c-0.9-0.2-1.4,1.2-0.4,1.4c3.7,0.9,7.5-1.3,8.5-5
					C224.6,114.1,223.2,113.7,222.9,114.6L222.9,114.6z"/>
			</g>
			<g>
				<path class="st11" d="M223.6,119c-0.5,1.2-1.6,2.1-3,2.1c-1,0-1,1.5,0,1.5c1.8-0.1,3.5-1.1,4.3-2.8
					C225.2,119,224,118.2,223.6,119L223.6,119z"/>
			</g>
		</g>
		<g>
			<g>
				<g>
					<path class="st8" d="M271.1,125.9c-5.1,8.4-12.8,14.5-22.1,17.6c-3.6,1.2-2.1,7,1.6,5.8c10.8-3.6,19.7-10.7,25.7-20.4
						C278.3,125.6,273.1,122.6,271.1,125.9L271.1,125.9z"/>
				</g>
			</g>
			<path class="st11" d="M305.2,154.1h-38v-16.3c0-10.5,8.5-19,19-19h0c10.5,0,19,8.5,19,19V154.1z"/>
			<path class="st28" d="M305.2,136.5c0-5.5-2.7-10.5-7-13.7c-10.2,10.3-19.7,20.8-29.7,31.4h5.8c10.9-4.3,20.8-10,30.9-15.5V136.5z
				"/>
			<path class="st17" d="M305.2,138.6c-10.1,5.5-20,11.2-30.9,15.5h30.9V138.6z"/>
			<g>
				<path class="st14" d="M259.9,150.9h-34.7V130c0-3.2,2.6-5.7,5.7-5.7h23.3c3.2,0,5.7,2.6,5.7,5.7V150.9z"/>
				<path class="st12" d="M260.2,149.4c-11.2-7.2-22.7-14.1-34.6-20.1c-0.1,0.3-0.1,0.6-0.1,0.9v11.9c11.6,2.7,23.1,5.9,34.7,9
					V149.4z"/>
				<path class="st23" d="M225.4,142.1v9.4h34.7v-0.4C248.6,147.9,237,144.8,225.4,142.1z"/>
				<path class="st11" d="M268.5,154.2h-43.4v-3.3h43.4c0.9,0,1.6,0.7,1.6,1.6l0,0C270.2,153.4,269.4,154.2,268.5,154.2z"/>
				<circle class="st11" cx="242.8" cy="138.4" r="4.5"/>
			</g>
			<g>
				<path class="st20" d="M265.3,151.4c14-0.9,26.5-8,34.3-19.7c2.1-3.2-3-6.1-5.1-3c-6.6,9.9-17.4,16.1-29.2,16.8
					C261.5,145.8,261.5,151.7,265.3,151.4L265.3,151.4z"/>
			</g>
			<path class="st20" d="M285.9,125.5L285.9,125.5c-3.6,0-6.6-3-6.6-6.6v-1.1c0-3.6,3-6.6,6.6-6.6h0c3.6,0,6.6,3,6.6,6.6v1.1
				C292.5,122.5,289.6,125.5,285.9,125.5z"/>
			<path class="st29" d="M292.4,102h8.9c0,0,0-0.6,0-0.9c0-11.3-6.8-20.3-15.1-20.3c-8.2,0-14.9,9.2-15.1,20.2h7.9v18.4
				c2,1.4,4.5,2.2,6.9,2.2c2.3,0,4.6-0.7,6.5-1.9L292.4,102z"/>
			<ellipse class="st9" cx="286.2" cy="99.2" rx="15.1" ry="20.5"/>
			<path class="st14" d="M296,85.5c-0.6,0-1,0.1-2,0.4V81h-18v4.9c-1-0.4-1.5-0.6-2.2-0.6c-1.9,0-3.5,1.5-3.5,3.4
				c0,1.9,1.4,3.4,3.3,3.4c0.2,0,0.3,0,0.5-0.1c0.7,1.6,2.3,2.7,4.2,2.7c2,0,3.6-1.2,4.3-2.9c0.7,0.9,1.7,1.4,2.9,1.4
				c1.5,0,2.7-0.8,3.3-2.1c0.6,0.6,1.4,0.9,2.3,0.9c0.3,0,0.6-0.1,0.9-0.1c0.7,1.6,2.3,2.8,4.2,2.8c2.5,0,4.5-2.1,4.5-4.6
				S298.5,85.5,296,85.5z"/>
			<path class="st10" d="M300.2,88h-30l0.5-1c0.4-0.8,1.2-1.3,2.2-1.3l25.3,0.6c0.6,0,1.2,0.3,1.5,0.9L300.2,88z"/>
			<g>
				<path class="st9" d="M298.1,84.3l-24.2,0.5v-6.9c0-4.2,3.4-7.6,7.6-7.6h2.6C291.8,70.3,298.1,76.6,298.1,84.3L298.1,84.3z"/>
				<path class="st14" d="M297.2,79h-2.7c-1.1,0-1.9,1-1.9,2c0,1,0.8,2,1.9,2h3.6C297.9,82,298,82,297.2,79z"/>
				<path class="st11" d="M280.2,81.9L280.2,81.9c-2,0-3.6-1.6-3.6-3.6v0c0-2,1.6-3.6,3.6-3.6l0,0c2,0,3.6,1.6,3.6,3.6v0
					C283.8,80.2,282.2,81.9,280.2,81.9z"/>
				<path class="st20" d="M298.7,86.3h-36.5c-0.6,0-1-0.5-1-1l0,0c0-0.6,0.5-1,1-1h35.9L298.7,86.3z"/>
			</g>
		</g>
	</g>
	<g>
		<g>
			<g>
				<path class="st11" d="M245.9,184.6c-0.8,2.8-3.8,4.6-6.7,3.9c-0.9-0.2-1.4,1.2-0.4,1.4c3.7,0.9,7.5-1.3,8.5-5
					C247.6,184.1,246.2,183.7,245.9,184.6L245.9,184.6z"/>
			</g>
			<g>
				<path class="st11" d="M246.6,189c-0.5,1.2-1.6,2.1-3,2.1c-1,0-1,1.5,0,1.5c1.8-0.1,3.5-1.1,4.3-2.8
					C248.2,189,247,188.2,246.6,189L246.6,189z"/>
			</g>
		</g>
		<g>
			<g>
				<path class="st11" d="M291,219.7c-6.4,5.1-14.2,5.8-20.7,3.2c0,1.9-0.4,3.7-0.9,5.5c8.3,2.7,17.9,1.4,25.6-4.8
					C297.8,221.4,293.8,217.5,291,219.7z"/>
				<path class="st20" d="M257.2,207.7c-0.8-3.5-6.2-2-5.4,1.5c2.3,9.8,9.3,16.6,17.6,19.3c0.5-1.8,0.9-3.7,0.9-5.5
					C264.1,220.4,259,215,257.2,207.7z"/>
			</g>
			<polygon class="st29" points="252.3,211 252.9,212.7 259.2,212.9 258.1,210.6 			"/>
			<path class="st11" d="M312.4,258.4h-31.1l3.1-20.6l-3.1-6.8c0-7.6,6.2-13.7,13.7-13.7h0c7.6,0,14.8,5.5,14.8,13L312.4,258.4z"/>
			<path class="st28" d="M307.4,224.2c-8,11.2-16,22.7-24.6,34.2h15.9c3.6-9.7,7.4-19.4,11.1-29.1
				C309.5,226.2,309.5,226.2,307.4,224.2z"/>
			<path class="st17" d="M309.9,230.3c0-0.3,0-0.7-0.1-1c-3.7,9.7-7.5,19.4-11.1,29.1h13.7L309.9,230.3z"/>
			<circle class="st14" cx="295.6" cy="167.6" r="5"/>
			<circle class="st11" cx="284.7" cy="232.5" r="6.2"/>
			<path class="st29" d="M305.2,252.2c-2.6,2.5,1.3,6.4,4,4c0.9-0.8,1.9-1.7,2.9-2.7c-0.1-2.5-0.2-5-0.5-7.4
				C309.5,248.3,307,250.5,305.2,252.2z"/>
			<path class="st11" d="M315.9,229.4c-2.7-3.2-6.5-5.6-9.7-8.1c-2.9-2.2-5.6,2.7-2.8,4.8c2.5,1.9,6,4,8.2,6.7
				C312.8,231.4,314.4,230.5,315.9,229.4z"/>
			<path class="st9" d="M319.2,236.5c-0.3-2.8-1.6-5.1-3.2-7.1c-1.5,1.1-3.2,2-4.3,3.4c1.1,1.4,1.9,3,1.9,4.8
				c0.1,4.9-5.9,9.5-9.2,12.6c-2.6,2.5,1.3,6.4,4,4C313,249.7,320,243.9,319.2,236.5z"/>
			<g>
				<path class="st14" d="M260,211.4h-7.2c-1.5,0-2.7-1.2-2.7-2.7v-12.8c0-1.5,1.2-2.7,2.7-2.7h7.2c1.5,0,2.7,1.2,2.7,2.7v12.8
					C262.7,210.2,261.5,211.4,260,211.4z"/>
				<path class="st11" d="M259.7,207.8h-6.6c-0.6,0-1.1-0.5-1.1-1.1v-10.2c0-0.6,0.5-1.1,1.1-1.1h6.6c0.6,0,1.1,0.5,1.1,1.1v10.2
					C260.8,207.3,260.3,207.8,259.7,207.8z"/>
				<circle class="st11" cx="256.9" cy="209.7" r="1"/>
			</g>
			<path class="st29" d="M286.9,239.9h-0.1c1,2,3.1,3.3,5.4,3.3c2.8,0,5.1-1.8,5.8-4.3C295.1,241.9,290.8,243.3,286.9,239.9z"/>
			<path class="st11" d="M292.2,231c-3.4,0-6.1,2.7-6.1,6.1c0,1,0.3,2,0.7,2.8h0.1c3.9,3.4,8.2,2,11.1-1c0.2-0.6,0.3-1.2,0.3-1.8
				C298.3,233.7,295.6,231,292.2,231z"/>
			<polyline class="st29" points="284.7,238.6 288.2,237.8 284.1,240.3 284.3,238.6 			"/>
			<path class="st20" d="M297.1,207.3h-3.8c-2,0-3.6,1.6-3.6,3.6v10.7l-0.5,5.4c-0.1,1,1.1,1.6,1.9,1.1l6.9-4.6
				c1.8-1.2,2.8-3.2,2.8-5.3v-7.1C300.9,209,299.2,207.3,297.1,207.3z"/>
			<circle class="st14" cx="281.3" cy="195.6" r="5"/>
			<circle class="st14" cx="279.6" cy="189.9" r="5"/>
			<circle class="st14" cx="282.2" cy="182.9" r="6.2"/>
			<circle class="st14" cx="311" cy="195.6" r="6.1"/>
			<path class="st29" d="M300.5,199h7.5c0,0,0-0.5,0-0.9c0-11.3-5.7-20.3-12.7-20.3c-6.9,0-12.5,9.2-12.7,20.2h7.4v18.4
				c2,1.4,3.4,2.2,5.4,2.2c1.9,0,3.7-0.7,5.3-1.9L300.5,199z"/>
			<circle class="st14" cx="305" cy="169.8" r="8"/>
			<circle class="st14" cx="312.4" cy="174.8" r="5"/>
			<circle class="st14" cx="314.9" cy="188.1" r="5"/>
			<circle class="st14" cx="315.4" cy="180.8" r="5"/>
			<path class="st29" d="M315.5,185.8c0-1.1-0.2-2.2-0.6-3.2c0,0.2,0,0.4,0,0.6c0,3.6-2.4,6.4-5.6,7.4c0.3,1.5,0.4,2,0.4,2.9
				C313.3,192.7,315.5,189.6,315.5,185.8z"/>
			<ellipse class="st20" cx="280.9" cy="192.8" rx="2.5" ry="3.4"/>
			<ellipse class="st20" cx="309.9" cy="196.2" rx="2.5" ry="3.4"/>
			<ellipse class="st9" cx="294.7" cy="196.2" rx="15.1" ry="20.5"/>
			<circle class="st14" cx="307.4" cy="182.8" r="8"/>
			<path class="st29" d="M281.7,185.6c-1.1-2.7-1.7-5.7-1.5-8.7c0.3-0.1,0.7-0.1,1-0.2c0.1,0,0.2,0,0.3,0c0.1,0.1,0.1,0.2,0.2,0.3
				c0.2,1.6,0.6,3.1,1.1,4.6c0.3,0.8,0.5,1.1,0.2,1.8C282.6,184.2,282,184.8,281.7,185.6z"/>
			<circle class="st14" cx="292.9" cy="177.8" r="11.6"/>
			<polygon class="st29" points="279.2,229.7 283.5,223.6 282.6,223.8 277.8,229.7 			"/>
		</g>
	</g>
	<g>
		<g>
			<g>
				<path class="st11" d="M195.9,271.6c-0.8,2.8-3.8,4.6-6.7,3.9c-0.9-0.2-1.4,1.2-0.4,1.4c3.7,0.9,7.5-1.3,8.5-5
					C197.6,271.1,196.2,270.7,195.9,271.6L195.9,271.6z"/>
			</g>
			<g>
				<path class="st11" d="M196.6,276c-0.5,1.2-1.6,2.1-3,2.1c-1,0-1,1.5,0,1.5c1.8-0.1,3.5-1.1,4.3-2.8
					C198.2,276,197,275.2,196.6,276L196.6,276z"/>
			</g>
		</g>
		<g>
			<g>
				<rect x="204" y="325.7" class="st20" width="4" height="15.2"/>
				<path class="st9" d="M211.3,329.6h-9.5c-3.6,0-6.6-2.9-6.6-6.6v-34.6c0-3.6,2.9-6.6,6.6-6.6h4.4c2.8,0,5,2.3,5,5V329.6z"/>
				<path class="st14" d="M211.3,325.1h-2c-2.9,0-5.3-2.4-5.3-5.3v-28.1c0-2.9,2.4-5.3,5.3-5.3h2V325.1z"/>
				<path class="st9" d="M218.9,340.8h-23.5c-0.7,0-1.3-0.6-1.3-1.3V339c0-0.7,0.6-1.3,1.3-1.3h23.5c0.7,0,1.3,0.6,1.3,1.3v0.5
					C220.2,340.2,219.6,340.8,218.9,340.8z"/>
				<path class="st8" d="M199.4,293.3h-4.1v-2h4.1c0.5,0,0.9,0.4,0.9,0.9v0.3C200.2,292.9,199.8,293.3,199.4,293.3z"/>
				<path class="st8" d="M199.4,297.3h-4.1v-2h4.1c0.5,0,0.9,0.4,0.9,0.9v0.3C200.2,296.9,199.8,297.3,199.4,297.3z"/>
				<path class="st8" d="M199.4,301.2h-4.1v-2h4.1c0.5,0,0.9,0.4,0.9,0.9v0.3C200.2,300.8,199.8,301.2,199.4,301.2z"/>
				<path class="st8" d="M199.4,304.9h-4.1v-2h4.1c0.5,0,0.9,0.4,0.9,0.9v0.3C200.2,304.5,199.8,304.9,199.4,304.9z"/>
				<path class="st8" d="M199.4,308.7h-4.1v-2h4.1c0.5,0,0.9,0.4,0.9,0.9v0.3C200.2,308.3,199.8,308.7,199.4,308.7z"/>
				<path class="st8" d="M199.4,312.7h-4.1v-2h4.1c0.5,0,0.9,0.4,0.9,0.9v0.3C200.2,312.3,199.8,312.7,199.4,312.7z"/>
				<path class="st8" d="M199.4,316.6h-4.1v-2h4.1c0.5,0,0.9,0.4,0.9,0.9v0.3C200.2,316.2,199.8,316.6,199.4,316.6z"/>
			</g>
			<rect x="204" y="329.6" class="st29" width="4" height="2.1"/>
			<g>
				<path class="st20" d="M247.3,264.8c-4.5-0.5-8.6,2-12.6,3.8c-5,2.2-10,4.3-15,6.5c-1.4,0.6-2.1,2.2-1.6,3.7
					c2.8,7.7,6.5,15,11.1,21.7c1.8-0.8,3.3-2,4.8-3c-3.9-5.7-7.2-11.8-9.7-18.2c-0.9,0.4-1.7,0.7-2.6,1.1c0.5-1.2,1.1-2.5,1.6-3.7
					c0.3,0.9,0.6,1.7,1,2.6c3-1.3,6.1-2.6,9.1-3.9c3.6-1.5,9.1-5.3,12.9-4.9C250.1,270.8,250.9,265.2,247.3,264.8z"/>
				<polygon class="st29" points="236.7,273.7 239.5,272.3 241.7,266.7 241.1,265.8 				"/>
				<path class="st20" d="M260.2,290.6l-13.1-2l-0.8,5.6c4,3.1,8.4,3.5,12.9,3.9L260.2,290.6z"/>
				<path class="st29" d="M247.4,286.8c-0.2,2.6-0.7,5-1.2,7.5c2.3,1.6,4.9,2.6,7.8,3.1c1.8,0.3,3.6,0.3,5.3,0
					c0.3-2.7,0.4-5.4,0.5-8.2C255.6,288.5,251.6,287.5,247.4,286.8z"/>
				<path class="st11" d="M233,305.3c2.3,2.9,6.8-0.5,4.6-3.4c-1.2-1.5-2.3-3-3.3-4.5c-1.5,0.9-3,2.2-4.8,3
					C230.5,302.1,231.7,303.7,233,305.3z"/>
				<path class="st20" d="M221.9,280.3c0.9-0.4,1.7-0.7,2.6-1.1c-0.3-0.9-0.7-1.7-1-2.6C222.9,277.9,222.4,279.1,221.9,280.3z"/>
				<path class="st11" d="M267.4,337.6l-40.6,0l3.5-23.3c1.6-11,11.9-18.5,22.8-16.9h0c11,1.6,18.5,11.9,16.9,22.8L267.4,337.6z"/>
				<path class="st17" d="M233.1,337.7l34.1,0l2.6-17.4c0-0.2,0-0.4,0.1-0.6C257.5,325.6,245.5,331.9,233.1,337.7z"/>
				<path class="st28" d="M262.7,301.9c-11.4,12.2-22.6,24.2-34.6,35.8l5,0c12.3-5.8,24.4-12.1,36.8-18
					C270.7,312.7,267.8,306.1,262.7,301.9z"/>
				
					<ellipse transform="matrix(0.8042 -0.5944 0.5944 0.8042 -107.497 198.5107)" class="st14" cx="247.5" cy="262.4" rx="7.3" ry="7.3"/>
				
					<ellipse transform="matrix(0.1484 -0.9889 0.9889 0.1484 -55.7053 490.1339)" class="st9" cx="256.7" cy="277.4" rx="18.6" ry="18.6"/>
				
					<ellipse transform="matrix(0.1484 -0.9889 0.9889 0.1484 -33.8066 497.0897)" class="st14" cx="271.7" cy="268.2" rx="9.4" ry="8.1"/>
				<path class="st29" d="M270.8,273.7c-2.3-2.9-6.8,0.5-4.6,3.4c2.2,2.8,4.4,5.6,6.7,8.3c1.4-1.3,2.8-2.5,4.3-3.7
					C275.1,279.1,272.9,276.4,270.8,273.7z"/>
				<path class="st11" d="M264.6,303.3c-3.6,0.2-3,5.9,0.7,5.6c2.8-0.2,5.6-0.5,8.3-1c-0.2-1.9-0.6-3.7-1-5.6
					C270,302.8,267.3,303.1,264.6,303.3z"/>
				<g>
					<path class="st9" d="M292.9,298.6c-7.2-8.5-14.2-17.1-21.1-25.8c-2.3-2.9-6.8,0.5-4.6,3.4c6.1,7.7,12.3,15.3,18.7,22.9
						c1.2-0.4,2.5-0.9,3.7-1.4c-0.4,1.4-0.8,2.9-1.2,4.3c-0.8-1-1.7-2-2.5-2.9c-4.3,1.5-8.8,2.6-13.3,3.4c0.4,1.9,0.7,3.7,1,5.6
						c6.2-1,12.2-2.7,18.1-5C293.3,302.2,294.1,300,292.9,298.6z"/>
					<circle class="st9" cx="288.8" cy="299.6" r="3.1"/>
				</g>
				<path class="st20" d="M246.2,294.2l-0.7,4.7c-0.5,3.3,1.8,6.3,5,6.8l1.4,0.2c3.3,0.5,6.3-1.8,6.8-5l0.4-2.8
					C254.6,297.7,250.2,297.3,246.2,294.2z"/>
			</g>
		</g>
	</g>
	<g>
		<rect x="63.4" y="219" class="st11" width="22" height="22"/>
		<rect x="63.4" y="219" class="st24" width="5.1" height="22"/>
		<rect x="81.2" y="219" class="st24" width="5.1" height="22"/>
		<rect x="64.6" y="220.5" class="st11" width="2.7" height="2.8"/>
		<rect x="64.6" y="225.5" class="st11" width="2.7" height="2.8"/>
		<rect x="64.6" y="230.4" class="st11" width="2.7" height="2.8"/>
		<rect x="64.6" y="235.5" class="st11" width="2.7" height="2.8"/>
		<rect x="82.3" y="220.5" class="st11" width="2.7" height="2.8"/>
		<rect x="82.3" y="225.5" class="st11" width="2.7" height="2.8"/>
		<rect x="82.4" y="230.4" class="st11" width="2.7" height="2.8"/>
		<rect x="82.4" y="235.5" class="st11" width="2.7" height="2.8"/>
		<path class="st26" d="M78.5,231.7v7.6c0,0.5,0.5,0.9,1,0.7l8.2-3.8c0.6-0.3,0.6-1.1,0-1.3l-8.2-3.8
			C79,230.8,78.5,231.2,78.5,231.7z"/>
		<path class="st14" d="M78.5,230.3v7.6c0,0.5,0.5,0.9,1,0.7l8.2-3.8c0.6-0.3,0.6-1.1,0-1.3l-8.2-3.8
			C79,229.5,78.5,229.8,78.5,230.3z"/>
	</g>
	<g>
		<rect x="122.7" y="250.5" class="st11" width="22.8" height="23.3"/>
		<g class="st26">
			<path d="M132.1,260.2c-5.6,0.5-7.5,8-2.2,10.6c1.1,0.5,2.1-1.1,1-1.6c-3.4-1.6-2.9-6.7,1.1-7.1
				C133.3,262,133.4,260.1,132.1,260.2L132.1,260.2z"/>
		</g>
		<path class="st26" d="M131.5,268l-2.4,3.8l3.8,0.2c0.4,0,0.7-0.4,0.5-0.7L131.5,268z"/>
		<g class="st26">
			<path d="M136.1,272c5.6-0.8,7.1-8.4,1.7-10.7c-1.1-0.5-2.1,1.2-0.9,1.7c3.4,1.5,3.2,6.6-0.8,7.1
				C134.9,270.3,134.9,272.2,136.1,272L136.1,272z"/>
		</g>
		<path class="st26" d="M136.3,264.2l2.2-3.9l-3.8-0.1c-0.4,0-0.6,0.4-0.4,0.8L136.3,264.2z"/>
		<rect x="122.7" y="252.8" class="st24" width="22.8" height="4"/>
		<rect x="134.9" y="253.8" class="st11" width="2.2" height="2.2"/>
		<rect x="138.4" y="253.8" class="st11" width="2.2" height="2.2"/>
		<rect x="141.6" y="253.7" class="st11" width="2.2" height="2.2"/>
		<g>
			<path class="st14" d="M132.9,259.5c-5.6,0.5-7.5,8-2.2,10.6c1.1,0.5,2.1-1.1,1-1.6c-3.4-1.6-2.9-6.7,1.1-7.1
				C134,261.3,134.1,259.4,132.9,259.5L132.9,259.5z"/>
		</g>
		<path class="st14" d="M132.3,267.3l-2.4,3.8l3.8,0.2c0.4,0,0.7-0.4,0.5-0.7L132.3,267.3z"/>
		<g>
			<path class="st14" d="M136.9,271.3c5.6-0.8,7.1-8.4,1.7-10.7c-1.1-0.5-2.1,1.2-0.9,1.7c3.4,1.5,3.2,6.6-0.8,7.1
				C135.6,269.5,135.6,271.4,136.9,271.3L136.9,271.3z"/>
		</g>
		<path class="st14" d="M137.1,263.5l2.2-3.9l-3.8-0.1c-0.4,0-0.6,0.4-0.4,0.8L137.1,263.5z"/>
	</g>
	<g>
		<polygon class="st11" points="115,256.2 93,256.2 93,234.2 109.8,234.2 115,239.7 115,239.7 		"/>
		<polygon class="st24" points="109.8,234.2 109.5,240.5 115.2,239.7 		"/>
		<rect x="94.9" y="237.1" class="st9" width="13.2" height="2.6"/>
		<rect x="94.9" y="241.9" class="st9" width="9.1" height="2.6"/>
		<rect x="106" y="241.9" class="st9" width="7.2" height="2.6"/>
		<rect x="95.2" y="246.5" class="st9" width="7.2" height="2.6"/>
		<rect x="95.2" y="251.2" class="st9" width="12.2" height="2.6"/>
		<g class="st26">
			<rect x="111.9" y="247" width="1.3" height="9.9"/>
			<rect x="103.1" y="247" width="1.3" height="9.9"/>
			<path d="M111.9,248.2H104c-0.9,0-1.6-0.7-1.6-1.6l0,0c0-0.9,0.7-1.6,1.6-1.6h7.9c0.9,0,1.6,0.7,1.6,1.6l0,0
				C113.6,247.4,112.8,248.2,111.9,248.2z"/>
			<circle cx="102.4" cy="256.7" r="2.4"/>
			<circle cx="111.6" cy="255.6" r="2.4"/>
		</g>
		<g>
			<rect x="110.9" y="247" class="st24" width="1.3" height="9.9"/>
			<rect x="102.1" y="247" class="st24" width="1.3" height="9.9"/>
			<path class="st14" d="M111,248.1H103c-0.9,0-1.6-0.7-1.6-1.6l0,0c0-0.9,0.7-1.6,1.6-1.6h7.9c0.9,0,1.6,0.7,1.6,1.6l0,0
				C112.6,247.4,111.9,248.1,111,248.1z"/>
			<circle class="st14" cx="101.4" cy="256.6" r="2.4"/>
			<circle class="st14" cx="110.7" cy="255.5" r="2.4"/>
		</g>
	</g>
</g>
</svg>
