<?xml version="1.0" ?><!DOCTYPE svg  PUBLIC '-//W3C//DTD SVG 1.1//EN'  'http://www.w3.org/Graphics/SVG/1.1/DTD/svg11.dtd'><svg enable-background="new 0 0 256 256" height="256px" id="Layer_1" version="1.1" viewBox="0 0 256 256" width="256px" xml:space="preserve" xmlns="http://www.w3.org/2000/svg" xmlns:xlink="http://www.w3.org/1999/xlink"><g><g><path clip-rule="evenodd" d="M150.467,135.053c36.445-22.559,20.378-79.093-22.47-79.093     c-42.842,0-58.925,56.526-22.464,79.095l-2.657,9.098c-46.725-25.885-28.238-97.389,25.122-97.389     c53.372,0,71.833,71.518,25.128,97.386L150.467,135.053L150.467,135.053z M157.012,157.396     C197.006,137.591,206.057,84.17,174.29,52.4C133.16,11.268,62.528,40.542,62.528,98.695c0,25.387,14.526,47.843,36.458,58.705     l-2.281,7.749C50.912,143.548,40.01,82.822,76.068,46.765c46.146-46.146,125.366-13.291,125.366,51.93     c0,28.96-16.854,54.522-42.141,66.452L157.012,157.396L157.012,157.396z M164.563,183.01     c59.163-25.69,74.38-103.312,28.404-149.288C135.244-24.001,36.116,17.076,36.116,98.695c0,37.238,22.277,69.97,55.32,84.318     l-1.923,6.515C25.47,162.362,8.644,78.568,58.258,28.955C120.228-33.014,226.62,11.1,226.62,98.695     c0,40.252-24.264,75.612-60.135,90.831L164.563,183.01L164.563,183.01z" fill="#2B78C2" fill-rule="evenodd"/><path clip-rule="evenodd" d="M135.371,109.349c10.268-7.169,5.234-23.466-7.371-23.466     c-12.609,0-17.635,16.299-7.373,23.466C106.718,157.871,91.992,206.541,77.706,256h14.665L128,235.401L163.627,256h14.666     C164.007,206.541,149.28,157.871,135.371,109.349L135.371,109.349z M118.739,148.847l-1.426,5.323l3.869-3.248L118.739,148.847     L118.739,148.847z M110.975,177.826l-5.388,20.104l15.487-12.172L110.975,177.826L110.975,177.826z M99.9,219.154l-7.12,26.574     l26.542-15.345L99.9,219.154L99.9,219.154z M137.244,148.788l-2.595,2.179l4.115,3.499L137.244,148.788L137.244,148.788z      M145.065,177.967l-9.917,7.792l15.199,11.939L145.065,177.967L145.065,177.967z M156.101,219.154l-19.426,11.229l26.545,15.346     L156.101,219.154L156.101,219.154z M113.476,168.737l14.634,11.493l14.319-11.251l-14.529-12.348L113.476,168.737     L113.476,168.737z M103.079,210.959L128,225.367l25.059-14.488l-24.946-19.591L103.079,210.959L103.079,210.959z M121.354,139.67     l6.64-25.469l6.733,25.169l-6.851,5.846L121.354,139.67L121.354,139.67z" fill="#3B4552" fill-rule="evenodd"/></g></g></svg>